<?xml version="1.0" encoding="utf-8"?>
<!-- Generator: Adobe Illustrator 16.0.3, SVG Export Plug-In . SVG Version: 6.00 Build 0)  -->
<!DOCTYPE svg PUBLIC "-//W3C//DTD SVG 1.1//EN" "http://www.w3.org/Graphics/SVG/1.1/DTD/svg11.dtd">
<svg version="1.1" id="レイヤー_1" xmlns="http://www.w3.org/2000/svg" xmlns:xlink="http://www.w3.org/1999/xlink" x="0px"
	 y="0px" width="40px" height="95px" viewBox="0 0 40 95" enable-background="new 0 0 40 95" xml:space="preserve">
<g id="d_x5F_to-top_1_">
	<g>
		<g>
			<path fill="#FF8037" d="M24.639,80.229c0,5.725-4.707,11.61-4.707,11.61s-4.707-5.886-4.707-11.61s4.707-9.12,4.707-9.12
				S24.639,74.504,24.639,80.229z"/>
			<path fill="#FFFFFF" d="M19.932,71.108c0,0,4.707,3.396,4.707,9.12s-4.707,11.61-4.707,11.61s-4.707-5.886-4.707-11.61
				S19.932,71.108,19.932,71.108 M19.932,68.696l-1.195,0.862c-0.226,0.162-5.512,4.051-5.512,10.67
				c0,6.313,4.916,12.531,5.125,12.793L19.932,95l1.582-1.979c0.209-0.262,5.125-6.48,5.125-12.793
				c0-6.619-5.286-10.508-5.512-10.67L19.932,68.696L19.932,68.696z"/>
		</g>
		<path fill="#FFFFFF" d="M21.857,79.184c0,2.451-1.85,4.971-1.85,4.971s-1.848-2.52-1.848-4.971c0-2.45,1.848-3.904,1.848-3.904
			S21.857,76.733,21.857,79.184z"/>
	</g>
	<g>
		<g>
			<path fill="#FF8037" d="M34.676,58.634c1.959-5.281,3.418-11.603,3.418-18.714c0-21.695-13.197-35.624-13.76-36.208
				c-1.136-1.173-2.652-1.817-4.272-1.817c-1.628,0-3.155,0.65-4.302,1.834C15.199,4.309,2.002,18.217,2.002,39.913
				c0,7.067,1.436,13.341,3.369,18.591c-1.045,2.793-3.566,9.82-3.553,12.681C1.838,75.435,5.502,82.4,5.502,82.4
				s1.338-4.358,2.328-7.283c0.426-1.258,2.367-4.027,3.221-5.213c0.556,0.863,1.088,1.773,1.578,2.458
				C12.857,72.681,13.221,73,13.609,73h12.896c0.389,0,0.754-0.32,0.98-0.64c0.475-0.663,0.986-1.481,1.52-2.312
				c0.882,1.228,2.747,3.871,3.163,5.1c0.989,2.925,2.329,7.263,2.329,7.263s3.663-6.97,3.684-11.219
				C38.194,68.375,35.75,61.51,34.676,58.634z"/>
			<path fill="#FFFFFF" d="M20.062,1.895c1.62,0,3.137,0.645,4.272,1.817c0.563,0.584,13.76,14.513,13.76,36.208
				c0,7.111-1.459,13.433-3.418,18.714c1.074,2.876,3.519,9.753,3.506,12.57c-0.021,4.249-3.684,11.229-3.684,11.229
				s-1.34-4.316-2.329-7.242c-0.416-1.229-2.281-3.826-3.163-5.055c-0.533,0.83-1.045,1.561-1.52,2.224
				C27.26,72.68,26.895,73,26.506,73H13.609c-0.389,0-0.752-0.319-0.98-0.638c-0.49-0.685-1.022-1.683-1.578-2.548
				c-0.854,1.187-2.795,4.002-3.221,5.259c-0.99,2.925-2.328,7.305-2.328,7.305s-3.664-6.956-3.684-11.204
				c-0.014-2.861,2.508-9.883,3.553-12.676c-1.934-5.25-3.369-11.521-3.369-18.588c0-21.697,13.197-35.603,13.758-36.184
				C16.906,2.544,18.434,1.895,20.062,1.895 M20.062,0c-2.11,0-4.093,0.846-5.581,2.384C13.895,2.989,0.184,17.438,0.184,39.913
				c0,6.263,1.09,12.511,3.242,18.581C1.799,62.9-0.014,68.434,0,71.193c0.021,4.598,3.51,11.36,3.908,12.117l2.035,3.869
				l1.29-4.203c0.013-0.043,1.342-4.365,2.312-7.229c0.123-0.367,0.587-1.205,1.389-2.43c0.079,0.122,0.158,0.617,0.238,0.729
				C11.51,74.518,12.301,76,13.609,76h12.896c1.313,0,2.104-1.486,2.441-1.959c0.045-0.064,0.092-0.319,0.137-0.386
				c0.619,0.925,1.205,1.774,1.37,2.261c0.971,2.867,2.3,7.104,2.313,7.146l1.299,4.164l2.026-3.873
				c0.397-0.758,3.885-7.539,3.907-12.135c0.012-2.869-2.006-8.854-3.377-12.588c2.182-6.119,3.289-12.41,3.289-18.709
				c0-22.473-13.713-36.947-14.296-37.552C24.136,0.841,22.164,0,20.062,0L20.062,0z"/>
		</g>
	</g>
	<path fill="#FFFFFF" d="M32.016,22.016c-3.788-0.781-7.636-1.474-11.932-1.474c-4.319,0-8.251,0.568-12.04,1.414
		c-1.939,5.109-3.618,11.973-3.618,18.903C4.426,50.797,8.902,60,12,66h16c3.096-6,7.67-15.22,7.67-25.133
		C35.67,33.943,33.952,27.126,32.016,22.016z"/>
	<g>
		<path fill="#FF8037" d="M18.049,25h3.941c0.424,0,0.811-0.215,1.16-0.315c0.148-0.04,0.281-0.132,0.396-0.132
			c0.405,0,0.796,0.267,1.179,0.87c0.381,0.603,0.572,1.206,0.572,1.845c0,0.438-0.133,0.748-0.396,0.949
			c-0.199,0.15-0.439,0.221-0.719,0.221c-0.264,0-0.493-0.075-0.688-0.224c-0.195-0.148-0.387-0.396-0.576-0.737
			c-0.165-0.311-0.295-0.516-0.389-0.611c-0.096-0.095-0.21-0.143-0.344-0.143c-0.186,0-0.652,0.077-0.732,0.233
			C21.375,27.112,21,27.368,21,27.725v4.223c0,0.433,0.379,0.746,0.469,0.943c0.09,0.195,0.427,0.346,0.677,0.451
			c0.269,0.116,0.535,0.226,0.633,0.328c0.097,0.104,0.188,0.246,0.188,0.427c0,0.362-0.223,0.631-0.708,0.807
			c-0.486,0.176-1.223,0.265-2.23,0.265c-1.236,0-2.148-0.104-2.747-0.31c-0.504-0.171-0.753-0.447-0.753-0.83
			c0-0.206,0.091-0.366,0.271-0.481c0.045-0.025,0.222-0.086,0.53-0.182c0.19-0.056,0.321-0.161,0.395-0.316
			c0.071-0.156,0.13-0.455,0.175-0.898c0.041-0.392,0.078-1.025,0.113-1.903c0.034-0.878,0.052-1.638,0.052-2.281
			c0-0.452-0.034-0.774-0.104-0.965c-0.07-0.191-0.185-0.286-0.344-0.286c-0.195,0-0.385,0.141-0.568,0.422
			c-0.334,0.513-0.609,0.852-0.823,1.018c-0.255,0.196-0.501,0.295-0.741,0.295c-0.269,0-0.49-0.103-0.665-0.307
			c-0.175-0.203-0.262-0.463-0.262-0.779c0-0.313,0.069-0.655,0.21-1.03c0.139-0.374,0.326-0.72,0.561-1.036
			c0.379-0.514,0.753-0.77,1.122-0.77c0.1,0,0.214,0.016,0.344,0.045c0.269,0.056,0.49,0.234,0.661,0.256
			C17.626,24.848,17.824,25,18.049,25z"/>
		<path fill="#FF8037" d="M20.055,37.434c1.166,0,2.186,0.37,3.057,1.109c0.59,0.508,1.068,1.166,1.437,1.975
			c0.358,0.805,0.538,1.609,0.538,2.414c0,1.186-0.354,2.246-1.063,3.183c-0.6,0.794-1.381,1.365-2.348,1.712
			c-0.596,0.211-1.191,0.316-1.791,0.316c-0.785,0-1.535-0.182-2.253-0.543c-0.866-0.438-1.544-1.099-2.035-1.984
			c-0.476-0.854-0.714-1.797-0.714-2.828c0-1.195,0.307-2.252,0.918-3.166c0.545-0.814,1.277-1.412,2.199-1.795
			C18.617,37.564,19.303,37.434,20.055,37.434z M19.408,39.598c-0.381,0-0.683,0.189-0.904,0.566
			c-0.173,0.281-0.26,0.615-0.26,1.002c0,0.568,0.105,1.227,0.313,1.973c0.209,0.746,0.472,1.408,0.79,1.986
			c0.141,0.248,0.314,0.443,0.521,0.588c0.205,0.147,0.415,0.22,0.629,0.22c0.344,0,0.622-0.143,0.834-0.431
			c0.211-0.285,0.316-0.664,0.316-1.131c0-0.607-0.089-1.264-0.266-1.967c-0.178-0.705-0.406-1.305-0.688-1.803
			c-0.173-0.307-0.372-0.549-0.6-0.725C19.869,39.701,19.641,39.607,19.408,39.598z"/>
		<path fill="#FF8037" d="M16,57.318v-3.967c0-0.513,0.017-0.838-0.053-0.977c-0.07-0.138-0.232-0.25-0.541-0.336
			c-0.449-0.13-0.662-0.356-0.662-0.678c0-0.227,0.102-0.4,0.291-0.521c0.189-0.121,0.467-0.022,0.826-0.022
			c0.119,0,0.42,0.182,0.893,0.182h0.449c0.828,0,1.313-0.17,1.455-0.178s0.649-0.131,1.522-0.211
			c0.289-0.031,0.554-0.086,0.792-0.086c0.818,0,1.547,0.15,2.185,0.486c1.112,0.583,1.668,1.497,1.668,2.765
			c0,1.025-0.39,1.843-1.167,2.462c-0.732,0.578-1.621,0.863-2.663,0.863c-0.264,0-0.588-0.019-0.972-0.054
			c-0.205-0.015-0.545-0.022-0.594-0.022c-0.145,0-0.43,0.082-0.43,0.247v0.046l0.265,1.236c0.011,0.241,0.16,0.421,0.237,0.539
			c0.077,0.119,0.289,0.24,0.527,0.366c0.324,0.176,0.514,0.367,0.514,0.573c0,0.316-0.227,0.561-0.705,0.731
			s-1.15,0.257-2.027,0.257c-1.846,0-2.765-0.319-2.765-0.958c0-0.15,0.042-0.267,0.121-0.347c0.079-0.081,0.268-0.196,0.563-0.347
			c0.179-0.097,0.231-0.229,0.263-0.4C16.021,58.799,16,58.249,16,57.318z M19,52.394v2.564c0,0.196,0.281,0.314,0.365,0.354
			c0.145,0.07,0.447,0.105,0.666,0.105c0.329,0,0.665-0.093,0.89-0.278c0.324-0.267,0.517-0.715,0.517-1.344
			c0-0.652-0.176-1.125-0.555-1.417c-0.238-0.186-0.76-0.279-1.098-0.279C19.416,52.1,19,52.198,19,52.394z"/>
	</g>
	<rect fill="none" width="40" height="95"/>
</g>
</svg>
