<?xml version="1.0" encoding="utf-8"?>
<!-- Generator: Adobe Illustrator 16.0.3, SVG Export Plug-In . SVG Version: 6.00 Build 0)  -->
<!DOCTYPE svg PUBLIC "-//W3C//DTD SVG 1.1//EN" "http://www.w3.org/Graphics/SVG/1.1/DTD/svg11.dtd">
<svg version="1.1" id="レイヤー_1" xmlns="http://www.w3.org/2000/svg" xmlns:xlink="http://www.w3.org/1999/xlink" x="0px"
	 y="0px" width="250px" height="38px" viewBox="0 0 250 38" enable-background="new 0 0 250 38" xml:space="preserve">
<g id="d_x5F_logo">
	<rect fill="none" width="250" height="38"/>
	<g>
		<path fill="#FFFFFF" d="M125.095,20.566c0.032-0.009,0.063-0.018,0.093-0.025l-1.236-4.316
			c-6.097,1.724-12.365,1.727-18.116,0.009l-1.303,4.3c3.296,0.982,6.737,1.473,10.216,1.473c1.143,0,2.292-0.058,3.441-0.164
			c-3.71,5.237-8.336,9.153-14.373,11.986l2.308,4.171c3.652-1.541,6.982-3.661,9.986-6.352c2.422,2.101,4.748,4.219,6.974,6.352
			l3.526-3.497c-2.316-2.155-4.677-4.274-7.082-6.355C121.428,25.942,123.903,22.976,125.095,20.566z"/>
		<path fill="#FFFFFF" d="M134.018,20.222h3.216c0.143,0,0.212,0.071,0.212,0.213v0.657c0,0.344,0.117,0.636,0.354,0.881
			c0.236,0.241,0.528,0.361,0.877,0.361c0.344,0,0.641-0.12,0.884-0.361c0.245-0.244,0.366-0.537,0.366-0.881v-0.657
			c0-0.142,0.065-0.213,0.191-0.213h6.69c0.144,0,0.213,0.071,0.213,0.213v0.657c0,0.344,0.118,0.636,0.356,0.881
			c0.235,0.241,0.527,0.361,0.872,0.361c0.347,0,0.643-0.12,0.889-0.361c0.245-0.244,0.368-0.537,0.368-0.881v-0.657
			c0-0.142,0.069-0.213,0.21-0.213h3.217c0.296,0,0.552-0.1,0.755-0.303c0.206-0.204,0.305-0.452,0.305-0.751
			c0-0.298-0.101-0.546-0.305-0.753c-0.204-0.201-0.459-0.306-0.755-0.306h-3.217c-0.141,0-0.21-0.067-0.21-0.208V17.48
			c0-0.345-0.123-0.639-0.368-0.882c-0.246-0.241-0.542-0.364-0.889-0.364c-0.345,0-0.638,0.123-0.872,0.364
			c-0.238,0.243-0.356,0.537-0.356,0.882v0.421c0,0.141-0.071,0.208-0.213,0.208h-6.69c-0.125,0-0.191-0.067-0.191-0.208V17.48
			c0-0.345-0.121-0.639-0.366-0.882c-0.243-0.241-0.54-0.364-0.884-0.364c-0.349,0-0.642,0.123-0.877,0.364
			c-0.237,0.243-0.354,0.537-0.354,0.882v0.421c0,0.141-0.07,0.208-0.212,0.208h-3.216c-0.3,0-0.553,0.104-0.757,0.306
			c-0.206,0.206-0.308,0.454-0.308,0.753c0,0.298,0.102,0.546,0.308,0.751C133.464,20.122,133.718,20.222,134.018,20.222z"/>
		<path fill="#FFFFFF" d="M153.191,28.743h-1.182c-0.126,0-0.189-0.074-0.189-0.214v-4.224c0-0.359-0.132-0.672-0.402-0.939
			c-0.267-0.265-0.583-0.397-0.944-0.397h-5.487c-0.143,0-0.212-0.065-0.212-0.188v-0.212c0-0.358-0.129-0.664-0.389-0.915
			c-0.263-0.249-0.565-0.376-0.914-0.376c-0.343,0-0.648,0.127-0.907,0.376c-0.262,0.252-0.393,0.557-0.393,0.915v0.212
			c0,0.122-0.067,0.188-0.21,0.188h-5.487c-0.362,0-0.675,0.133-0.933,0.397c-0.262,0.267-0.393,0.579-0.393,0.939v4.224
			c0,0.14-0.07,0.214-0.212,0.214h-1.181c-0.285,0-0.53,0.094-0.737,0.291c-0.204,0.195-0.305,0.435-0.305,0.713
			c0,0.284,0.101,0.526,0.305,0.728c0.207,0.205,0.452,0.306,0.737,0.306h7.633c0.048,0,0.087,0.021,0.109,0.061
			c0.023,0.036,0.02,0.074-0.012,0.105c-1.167,1.861-3.616,3.253-7.354,4.176c-0.314,0.076-0.546,0.25-0.696,0.516
			c-0.148,0.266-0.17,0.546-0.06,0.845c0.108,0.313,0.31,0.552,0.601,0.716c0.293,0.166,0.597,0.207,0.914,0.13
			c1.887-0.487,3.589-1.189,5.097-2.114c1.503-0.922,2.674-1.928,3.507-3.025c0.097-0.093,0.174-0.086,0.237,0.024
			c0.82,1.095,1.951,2.09,3.392,2.989c1.445,0.899,3.086,1.6,4.93,2.099c0.315,0.081,0.619,0.041,0.914-0.114
			c0.289-0.156,0.49-0.392,0.6-0.704c0.096-0.297,0.069-0.583-0.08-0.857c-0.149-0.273-0.373-0.441-0.675-0.503
			c-3.737-0.939-6.187-2.331-7.354-4.176c-0.031-0.031-0.035-0.069-0.011-0.105c0.022-0.04,0.059-0.061,0.107-0.061h7.637
			c0.285,0,0.527-0.101,0.734-0.306c0.206-0.201,0.306-0.444,0.306-0.728c0-0.278-0.103-0.518-0.306-0.713
			C153.72,28.837,153.477,28.743,153.191,28.743z M142.174,28.529c0,0.14-0.068,0.214-0.209,0.214h-4.188
			c-0.141,0-0.212-0.074-0.212-0.214v-3.357c0-0.122,0.072-0.186,0.212-0.186h4.188c0.143,0,0.209,0.063,0.209,0.186V28.529
			L142.174,28.529z M149.386,28.529c0,0.14-0.07,0.214-0.211,0.214h-4.188c-0.143,0-0.211-0.074-0.211-0.214v-3.357
			c0-0.122,0.069-0.186,0.211-0.186h4.188c0.142,0,0.211,0.063,0.211,0.186V28.529z"/>
		<path fill="#FFFFFF" d="M165.963,29.818c0.06-0.141,0.148-0.209,0.259-0.209h9.788c0.3,0,0.554-0.104,0.758-0.306
			c0.204-0.203,0.306-0.453,0.306-0.752c0-0.296-0.102-0.546-0.306-0.749c-0.206-0.204-0.458-0.306-0.758-0.306h-17.969
			c-0.3,0-0.554,0.102-0.758,0.306c-0.205,0.201-0.308,0.452-0.308,0.749c0,0.299,0.104,0.548,0.308,0.752
			c0.204,0.202,0.458,0.306,0.758,0.306h5.108c0.047,0,0.084,0.017,0.117,0.047c0.033,0.032,0.04,0.07,0.022,0.118
			c-0.677,1.641-1.44,3.267-2.292,4.876c-0.081,0.144-0.183,0.214-0.308,0.214c-0.459,0.031-1.142,0.062-2.059,0.093
			c-0.296,0.016-0.547,0.131-0.743,0.34c-0.2,0.212-0.29,0.467-0.273,0.764c0.016,0.295,0.139,0.544,0.364,0.738
			c0.231,0.195,0.494,0.285,0.793,0.27c4.635-0.186,9.629-0.634,14.968-1.338c0.129-0.032,0.223,0.018,0.286,0.139
			c0.109,0.221,0.274,0.536,0.497,0.941c0.156,0.296,0.399,0.501,0.731,0.609c0.33,0.11,0.646,0.103,0.945-0.023
			c0.3-0.123,0.505-0.336,0.615-0.634c0.112-0.294,0.086-0.586-0.07-0.866c-0.661-1.234-1.544-2.816-2.647-4.74
			c-0.174-0.297-0.414-0.502-0.721-0.609c-0.307-0.108-0.619-0.094-0.934,0.049c-0.284,0.123-0.477,0.334-0.577,0.631
			c-0.105,0.298-0.079,0.579,0.078,0.849c0.114,0.185,0.264,0.459,0.452,0.818c0.188,0.357,0.314,0.595,0.379,0.706
			c0.063,0.122,0.023,0.187-0.118,0.187c-3.184,0.391-6.085,0.68-8.699,0.864c-0.051,0-0.09-0.021-0.121-0.067
			c-0.03-0.047-0.03-0.088,0-0.117C164.747,32.637,165.457,31.086,165.963,29.818z"/>
		<path fill="#FFFFFF" d="M177.168,22.661c-2.792-1.577-5.312-3.33-7.567-5.251c-0.678-0.58-1.458-0.87-2.34-0.87h-0.474
			c-0.882,0-1.663,0.29-2.338,0.87c-2.304,1.953-4.827,3.704-7.569,5.251c-0.284,0.176-0.475,0.411-0.579,0.718
			c-0.104,0.307-0.076,0.605,0.083,0.902c0.143,0.283,0.365,0.47,0.675,0.565c0.306,0.093,0.601,0.061,0.886-0.096
			c1.089-0.625,1.805-1.048,2.15-1.268c0.128-0.076,0.188-0.054,0.188,0.069v0.26c0,0.36,0.135,0.674,0.404,0.94
			c0.266,0.265,0.581,0.399,0.945,0.399h10.78c0.363,0,0.681-0.135,0.948-0.399c0.267-0.266,0.402-0.58,0.402-0.94v-0.26
			c0-0.123,0.048-0.155,0.141-0.092c0.471,0.299,1.198,0.728,2.176,1.29c0.281,0.156,0.583,0.188,0.898,0.096
			c0.314-0.096,0.542-0.282,0.686-0.565c0.156-0.295,0.183-0.596,0.083-0.902C177.645,23.072,177.453,22.837,177.168,22.661z
			 M173.15,23.109H160.9c-0.031,0-0.046-0.016-0.046-0.048c0-0.029,0.008-0.052,0.023-0.069c2.159-1.408,4.16-2.973,6.005-4.69
			c0.093-0.095,0.19-0.095,0.282,0c1.812,1.687,3.825,3.252,6.029,4.69c0.015,0.017,0.019,0.04,0.012,0.069
			C173.199,23.094,173.182,23.109,173.15,23.109z"/>
		<path fill="#FFFFFF" d="M200.456,23.039h-3.688c-0.141,0-0.213-0.07-0.213-0.212v-2.741c0-0.128,0.066-0.206,0.192-0.237
			c1.354-0.249,2.411-0.479,3.167-0.68c0.3-0.078,0.526-0.252,0.684-0.518c0.159-0.263,0.198-0.548,0.12-0.842
			c-0.063-0.284-0.226-0.497-0.484-0.646c-0.262-0.15-0.534-0.183-0.815-0.107c-2.587,0.689-5.502,1.151-8.749,1.384
			c-0.301,0.033-0.553,0.155-0.758,0.374c-0.206,0.223-0.3,0.479-0.285,0.778c0.031,0.295,0.158,0.538,0.38,0.727
			c0.223,0.188,0.479,0.273,0.779,0.256c0.757-0.046,1.79-0.147,3.098-0.304c0.127-0.031,0.189,0.022,0.189,0.165v2.392
			c0,0.142-0.072,0.213-0.211,0.213h-3.69c-0.299,0-0.552,0.101-0.754,0.307c-0.207,0.201-0.309,0.451-0.309,0.748
			c0,0.299,0.102,0.548,0.309,0.752c0.203,0.204,0.456,0.306,0.754,0.306h3.69c0.142,0,0.211,0.069,0.211,0.21v2.346
			c0,0.142-0.072,0.212-0.211,0.212h-2.698c-0.363,0-0.678,0.128-0.944,0.389c-0.27,0.259-0.404,0.564-0.404,0.925v7.133
			c0,0.328,0.116,0.604,0.344,0.832c0.231,0.226,0.51,0.34,0.841,0.34h0.163c0.284,0,0.525-0.101,0.723-0.306
			c0.196-0.202,0.296-0.442,0.296-0.727c0-0.094,0.054-0.14,0.166-0.14h5.813c0.111,0,0.166,0.046,0.166,0.14
			c0,0.285,0.102,0.524,0.298,0.727c0.196,0.205,0.435,0.306,0.718,0.306h0.212c0.347,0,0.644-0.123,0.89-0.363
			c0.244-0.243,0.365-0.535,0.365-0.879v-7.063c0-0.361-0.137-0.667-0.401-0.925c-0.27-0.262-0.587-0.39-0.946-0.39h-2.698
			c-0.139,0-0.212-0.07-0.212-0.212v-2.346c0-0.141,0.073-0.21,0.212-0.21h3.689c0.3,0,0.552-0.102,0.76-0.305
			c0.203-0.204,0.304-0.453,0.304-0.752c0-0.297-0.102-0.548-0.304-0.749C201.008,23.14,200.758,23.039,200.456,23.039z
			 M198.117,29.841c0.142,0,0.212,0.071,0.212,0.213v4.175c0,0.126-0.07,0.188-0.212,0.188h-5.743c-0.129,0-0.189-0.063-0.189-0.188
			v-4.175c0-0.142,0.06-0.213,0.189-0.213H198.117z"/>
		<path fill="#FFFFFF" d="M187.171,30.78h-5.062c-0.363,0-0.675,0.135-0.933,0.4c-0.26,0.267-0.391,0.578-0.391,0.938v4.527
			c0,0.329,0.116,0.607,0.342,0.832c0.232,0.229,0.51,0.341,0.842,0.341h0.354c0.22,0,0.409-0.082,0.568-0.246
			c0.156-0.164,0.236-0.354,0.236-0.576c0-0.077,0.047-0.113,0.142-0.113h3.902c0.359,0,0.675-0.135,0.944-0.399
			s0.4-0.579,0.4-0.939v-3.426c0-0.358-0.133-0.671-0.4-0.938C187.846,30.915,187.53,30.78,187.171,30.78z M186.272,34.677
			c0,0.139-0.074,0.208-0.215,0.208h-2.716c-0.143,0-0.213-0.07-0.213-0.208v-1.713c0-0.125,0.07-0.19,0.213-0.19h2.716
			c0.142,0,0.215,0.065,0.215,0.19V34.677z"/>
		<path fill="#FFFFFF" d="M181.803,19.356h5.629c0.282,0,0.522-0.103,0.72-0.307c0.196-0.202,0.294-0.446,0.294-0.726
			c0-0.281-0.099-0.524-0.294-0.727c-0.199-0.203-0.438-0.308-0.72-0.308h-5.629c-0.283,0-0.525,0.104-0.721,0.308
			c-0.197,0.202-0.298,0.446-0.298,0.727s0.101,0.523,0.298,0.726C181.277,19.254,181.52,19.356,181.803,19.356z"/>
		<path fill="#FFFFFF" d="M188.801,20.938c-0.204-0.208-0.458-0.314-0.756-0.314h-6.856c-0.298,0-0.554,0.106-0.757,0.314
			c-0.204,0.212-0.309,0.468-0.309,0.765c0,0.296,0.104,0.541,0.309,0.738c0.203,0.196,0.459,0.292,0.757,0.292h6.856
			c0.299,0,0.552-0.096,0.756-0.292c0.204-0.197,0.307-0.442,0.307-0.738C189.108,21.405,189.004,21.149,188.801,20.938z"/>
		<path fill="#FFFFFF" d="M181.258,29.141c0.205,0.2,0.443,0.305,0.712,0.305h5.434c0.27,0,0.503-0.105,0.699-0.305
			c0.197-0.205,0.297-0.438,0.297-0.704c0-0.267-0.1-0.502-0.297-0.703c-0.195-0.206-0.429-0.306-0.699-0.306h-5.434
			c-0.269,0-0.507,0.1-0.712,0.306c-0.203,0.201-0.308,0.437-0.308,0.703C180.95,28.702,181.055,28.935,181.258,29.141z"/>
		<path fill="#FFFFFF" d="M181.969,26.086h5.435c0.269,0,0.503-0.099,0.7-0.302c0.197-0.204,0.295-0.439,0.295-0.704
			c0-0.266-0.099-0.496-0.295-0.692c-0.196-0.196-0.429-0.294-0.7-0.294h-5.435c-0.268,0-0.507,0.098-0.711,0.294
			c-0.202,0.196-0.308,0.427-0.308,0.692c0,0.265,0.105,0.5,0.308,0.704C181.461,25.989,181.701,26.086,181.969,26.086z"/>
		<path fill="#FFFFFF" d="M216.37,31.882c0.189-0.216,0.274-0.458,0.26-0.727c-0.017-0.265-0.12-0.479-0.32-0.646
			c-0.196-0.161-0.421-0.236-0.672-0.22c-1.894,0.156-2.869,0.232-2.932,0.232c-0.034,0-0.058-0.015-0.071-0.048
			c-0.016-0.028-0.01-0.053,0.021-0.068c0.6-0.518,1.105-0.988,1.514-1.407c0.44-0.47,0.662-1.04,0.662-1.715
			c0-0.265-0.095-0.491-0.283-0.678c-0.188-0.19-0.419-0.284-0.684-0.284H210.6c-0.033,0-0.057-0.018-0.071-0.057
			c-0.017-0.04-0.009-0.067,0.024-0.082c0.488-0.408,1.05-0.926,1.68-1.55c0.077-0.077,0.197-0.116,0.357-0.116h2.147
			c0.284,0,0.528-0.104,0.733-0.306c0.205-0.202,0.307-0.446,0.307-0.729c0-0.279-0.102-0.523-0.307-0.726
			c-0.205-0.203-0.449-0.306-0.733-0.306h-0.331c-0.125,0-0.147-0.056-0.07-0.163c0.852-1.097,1.605-2.276,2.268-3.542
			c0.129-0.266,0.141-0.526,0.037-0.777c-0.104-0.247-0.287-0.43-0.555-0.539c-0.283-0.108-0.567-0.108-0.852,0
			c-0.285,0.108-0.497,0.298-0.639,0.563c-0.301,0.548-0.574,1-0.828,1.362c-0.014,0.029-0.037,0.042-0.072,0.033
			c-0.031-0.008-0.046-0.026-0.046-0.059c0-0.359-0.135-0.672-0.401-0.938c-0.27-0.264-0.584-0.399-0.947-0.399h-1.346
			c-0.127,0-0.189-0.07-0.189-0.212V17.48c0-0.345-0.123-0.639-0.367-0.882c-0.245-0.241-0.541-0.364-0.886-0.364
			c-0.347,0-0.638,0.123-0.874,0.364c-0.237,0.243-0.352,0.537-0.352,0.882v0.302c0,0.142-0.074,0.212-0.219,0.212h-2.125
			c-0.268,0-0.5,0.094-0.688,0.281c-0.187,0.19-0.283,0.417-0.283,0.683c0,0.265,0.097,0.491,0.283,0.678
			c0.188,0.188,0.42,0.283,0.688,0.283h2.125c0.145,0,0.219,0.069,0.219,0.211v2.134c0,0.127-0.074,0.188-0.219,0.188h-2.904
			c-0.284,0-0.525,0.103-0.722,0.306c-0.198,0.202-0.295,0.446-0.295,0.726c0,0.282,0.097,0.526,0.295,0.729
			c0.196,0.201,0.438,0.306,0.722,0.306h3.829c0.032,0,0.054,0.015,0.073,0.047c0.014,0.03,0.007,0.053-0.024,0.07
			c-1.312,1.11-2.695,2.063-4.161,2.862c-0.253,0.124-0.415,0.32-0.486,0.587c-0.07,0.266-0.034,0.517,0.107,0.751
			c0.158,0.249,0.368,0.417,0.625,0.505c0.262,0.083,0.524,0.066,0.793-0.06c0.553-0.281,1.098-0.587,1.631-0.915
			c0.11-0.063,0.23-0.093,0.354-0.093h3.977c0.123,0,0.147,0.042,0.07,0.117c-0.379,0.343-0.789,0.68-1.23,1.008
			c-0.063,0.063-0.156,0.093-0.283,0.093c-0.271,0-0.495,0.096-0.689,0.284c-0.186,0.187-0.278,0.414-0.278,0.679v0.094
			c0,0.108-0.058,0.162-0.167,0.162c-0.949,0.05-2.316,0.104-4.115,0.166c-0.27,0.016-0.493,0.128-0.672,0.331
			c-0.182,0.202-0.267,0.437-0.25,0.703c0.015,0.28,0.127,0.515,0.329,0.701c0.205,0.19,0.45,0.275,0.735,0.261
			c1.75-0.063,3.064-0.119,3.949-0.165c0.125,0,0.19,0.062,0.19,0.188v1.174c0,0.609-0.038,0.968-0.11,1.076
			c-0.068,0.109-0.312,0.165-0.719,0.165c-0.128,0-0.348-0.012-0.66-0.035c-0.318-0.021-0.572-0.033-0.76-0.033
			c-0.283-0.016-0.527,0.068-0.732,0.258c-0.207,0.187-0.301,0.423-0.285,0.701c0.016,0.298,0.125,0.555,0.322,0.766
			c0.195,0.21,0.441,0.325,0.742,0.338c0.486,0.031,1.08,0.048,1.774,0.048c1.308,0,2.12-0.164,2.437-0.491
			c0.313-0.328,0.473-1.183,0.473-2.56v-1.549c0-0.155,0.07-0.234,0.21-0.234c1.247-0.093,2.422-0.188,3.524-0.28
			C215.95,32.222,216.181,32.103,216.37,31.882z M210.766,20.13c0-0.142,0.063-0.211,0.189-0.211h2.225
			c0.123,0,0.146,0.052,0.07,0.167c-0.52,0.732-1.119,1.476-1.797,2.228c-0.099,0.094-0.207,0.139-0.332,0.139h-0.166
			c-0.127,0-0.189-0.062-0.189-0.188V20.13z"/>
		<path fill="#FFFFFF" d="M225.281,19.592h-5.15c-0.049,0-0.092-0.025-0.132-0.071c-0.039-0.049-0.051-0.092-0.034-0.143
			c0.142-0.498,0.29-1.102,0.447-1.805c0.063-0.297,0.004-0.568-0.176-0.811c-0.184-0.241-0.423-0.378-0.723-0.41
			c-0.313-0.029-0.605,0.041-0.873,0.223c-0.268,0.181-0.434,0.419-0.496,0.715c-0.803,3.256-1.813,5.998-3.027,8.235
			c-0.174,0.298-0.231,0.623-0.176,0.974c0.055,0.352,0.206,0.637,0.461,0.856c0.236,0.202,0.508,0.273,0.814,0.212
			c0.309-0.063,0.537-0.228,0.695-0.494c0.365-0.672,0.587-1.095,0.662-1.265c0.019-0.033,0.039-0.045,0.063-0.039
			c0.022,0.011,0.043,0.029,0.058,0.06c0.458,2.271,1.073,4.162,1.845,5.678c0.062,0.143,0.055,0.251-0.023,0.329
			c-1.088,1.189-2.626,2.269-4.609,3.235c-0.27,0.126-0.445,0.327-0.522,0.602c-0.079,0.273-0.038,0.534,0.118,0.786
			c0.173,0.265,0.412,0.445,0.709,0.537c0.301,0.095,0.594,0.072,0.876-0.069c1.925-0.937,3.476-1.985,4.659-3.143
			c0.092-0.093,0.189-0.086,0.283,0.021c0.9,1.113,2.018,2.115,3.358,3.005c0.251,0.155,0.524,0.199,0.814,0.13
			c0.292-0.071,0.509-0.238,0.649-0.506c0.143-0.283,0.176-0.565,0.096-0.845c-0.078-0.282-0.244-0.517-0.497-0.705
			c-1.229-0.858-2.212-1.814-2.956-2.861c-0.096-0.124-0.104-0.24-0.023-0.352c1.437-2.221,2.365-5.474,2.787-9.76
			c0-0.108,0.049-0.165,0.144-0.165c0.271,0,0.497-0.094,0.687-0.279c0.188-0.189,0.283-0.416,0.283-0.682v-0.117
			c0-0.312-0.104-0.571-0.307-0.775C225.861,19.691,225.599,19.592,225.281,19.592z M221.217,29.328
			c-0.033,0.03-0.063,0.042-0.094,0.034c-0.033-0.008-0.055-0.028-0.07-0.059c-0.508-1.33-0.915-3.067-1.23-5.209
			c-0.031-0.251-0.15-0.447-0.354-0.586c-0.205-0.142-0.434-0.196-0.687-0.163c-0.079,0-0.101-0.042-0.073-0.12
			c0.189-0.468,0.35-0.899,0.475-1.29c0.047-0.123,0.135-0.187,0.261-0.187h3.382c0.111,0,0.166,0.063,0.166,0.187
			C222.676,25.063,222.083,27.526,221.217,29.328z"/>
		<path fill="#FFFFFF" d="M249.685,35.238c-0.204-0.203-0.449-0.305-0.731-0.305h-7.967c-0.145,0-0.213-0.063-0.213-0.188v-2.065
			c0-0.14,0.07-0.21,0.213-0.21h6.097c0.269,0,0.506-0.098,0.712-0.294c0.205-0.195,0.305-0.426,0.305-0.69
			c0-0.269-0.1-0.498-0.305-0.706c-0.206-0.2-0.441-0.304-0.712-0.304h-6.097c-0.145,0-0.213-0.062-0.213-0.187v-1.385
			c0-0.327-0.096-0.603-0.287-0.82c-0.031-0.031-0.038-0.067-0.02-0.105c0.014-0.041,0.037-0.06,0.066-0.06
			c2.999-0.251,4.727-0.399,5.182-0.447c0.108-0.016,0.211,0.031,0.307,0.142c0.047,0.063,0.125,0.171,0.236,0.329
			c0.109,0.156,0.194,0.266,0.26,0.327c0.205,0.266,0.48,0.438,0.829,0.515c0.345,0.08,0.671,0.041,0.967-0.116
			c0.284-0.14,0.454-0.36,0.511-0.668c0.053-0.306-0.01-0.584-0.199-0.833c-0.855-1.097-1.855-2.284-3.006-3.566
			c-0.031-0.018-0.034-0.049-0.013-0.094c0.022-0.048,0.052-0.071,0.081-0.071h1.752c0.221,0,0.408-0.074,0.558-0.224
			c0.147-0.147,0.221-0.323,0.221-0.526c0-0.078,0.04-0.118,0.121-0.118h0.188c0.361,0,0.677-0.13,0.945-0.399
			c0.268-0.264,0.401-0.579,0.401-0.938V19.33c0-0.36-0.136-0.673-0.401-0.938c-0.27-0.263-0.585-0.399-0.945-0.399h-7.543
			c-0.143,0-0.212-0.063-0.212-0.186v-0.519c0-0.344-0.132-0.644-0.392-0.901c-0.26-0.259-0.562-0.387-0.909-0.387
			s-0.649,0.128-0.911,0.387c-0.264,0.258-0.391,0.558-0.391,0.901v0.519c0,0.123-0.069,0.186-0.211,0.186h-7.547
			c-0.36,0-0.677,0.137-0.941,0.399c-0.271,0.265-0.404,0.578-0.404,0.938v1.901c0,0.357,0.134,0.674,0.404,0.938
			c0.266,0.27,0.581,0.399,0.941,0.399h0.194c0.074,0,0.114,0.04,0.114,0.118c0,0.202,0.077,0.379,0.226,0.526
			c0.151,0.149,0.337,0.224,0.555,0.224h3.405c0.047,0,0.082,0.023,0.105,0.071c0.023,0.045,0.031,0.094,0.014,0.14
			c-0.506,1.003-0.969,1.854-1.396,2.56c-0.076,0.108-0.179,0.163-0.308,0.163c-0.267,0.016-0.654,0.035-1.159,0.06
			c-0.502,0.022-0.879,0.035-1.135,0.035c-0.267,0.015-0.498,0.125-0.697,0.328c-0.193,0.203-0.285,0.438-0.27,0.703
			c0.016,0.282,0.134,0.516,0.353,0.705c0.223,0.188,0.476,0.272,0.759,0.257c2.301-0.078,4.672-0.196,7.117-0.353
			c0.033,0,0.057,0.02,0.072,0.061c0.014,0.038,0.006,0.075-0.023,0.104c-0.113,0.173-0.166,0.384-0.166,0.634v1.384
			c0,0.126-0.071,0.187-0.213,0.187h-6.338c-0.269,0-0.503,0.104-0.711,0.305c-0.206,0.207-0.304,0.438-0.304,0.705
			c0,0.265,0.098,0.496,0.304,0.691c0.207,0.197,0.442,0.294,0.711,0.294h6.338c0.142,0,0.213,0.069,0.213,0.21v2.063
			c0,0.126-0.071,0.189-0.213,0.189h-7.971c-0.284,0-0.525,0.101-0.732,0.305c-0.205,0.203-0.304,0.445-0.304,0.727
			c0,0.282,0.1,0.522,0.304,0.729c0.207,0.201,0.448,0.302,0.732,0.302h18.965c0.282,0,0.528-0.101,0.731-0.302
			c0.206-0.206,0.31-0.448,0.31-0.729C249.994,35.685,249.891,35.443,249.685,35.238z M231.766,21.514
			c-0.143,0-0.215-0.07-0.215-0.212V20.2c0-0.141,0.072-0.212,0.215-0.212h15.416c0.141,0,0.212,0.071,0.212,0.212v1.102
			c0,0.142-0.071,0.212-0.212,0.212H231.766z M236.471,26.229c-0.128,0-0.151-0.056-0.072-0.164c0.504-0.878,0.931-1.688,1.276-2.44
			c0.048-0.125,0.144-0.188,0.284-0.188h4.375c0.11,0,0.219,0.057,0.33,0.166c0.11,0.141,0.358,0.428,0.746,0.867
			c0.385,0.438,0.68,0.774,0.885,1.011c0.015,0.028,0.011,0.066-0.013,0.104c-0.022,0.038-0.05,0.061-0.081,0.061
			C241.189,25.908,238.612,26.107,236.471,26.229z"/>
		<path fill="#FFFFFF" d="M69.963,32.98V21.919c2.653-0.197,5.319-0.66,7.954-1.396L76.688,16.2
			c-6.363,1.784-12.902,1.784-18.905,0.012l-1.291,4.3c2.611,0.773,5.305,1.247,8.042,1.43v11.065
			c-2.467-0.178-4.895-0.612-7.247-1.307l-1.29,4.299c3.575,1.059,7.306,1.589,11.081,1.589c3.766,0,7.577-0.527,11.332-1.577
			l-1.228-4.321C74.788,32.359,72.371,32.787,69.963,32.98z"/>
		<path fill="#FFFFFF" d="M82.525,24.212l-1.295,4.301c3.113,0.92,6.354,1.379,9.636,1.379c3.273,0,6.586-0.459,9.849-1.372
			l-1.229-4.315C93.693,25.823,87.987,25.829,82.525,24.212z"/>
	</g>
	<g>
		<path fill="#FFFFFF" d="M62.834,1.499c-0.051,0-0.077,0.029-0.077,0.086v0.164c0,0.058,0.025,0.088,0.077,0.088h0.579
			c0.148,0,0.277,0.054,0.387,0.163c0.109,0.109,0.164,0.237,0.164,0.384v1.741c0,0.146-0.055,0.273-0.164,0.385
			c-0.11,0.108-0.238,0.163-0.387,0.163h-3.889c-0.058,0-0.103,0.021-0.136,0.066c-0.058,0.071-0.138,0.165-0.241,0.279
			c-0.025,0.038-0.019,0.059,0.02,0.059h5.047c0.147,0,0.276,0.052,0.386,0.163c0.11,0.109,0.162,0.237,0.154,0.385
			c-0.013,0.91-0.08,1.604-0.203,2.086c-0.122,0.48-0.291,0.803-0.506,0.967c-0.215,0.163-0.525,0.245-0.932,0.245
			c-0.38,0-0.865-0.01-1.457-0.028c-0.147-0.008-0.278-0.063-0.39-0.169c-0.112-0.106-0.172-0.233-0.178-0.379
			c0-0.052-0.033-0.078-0.097-0.078c-0.193,0.007-0.531,0.011-1.013,0.011c-0.855,0-1.451-0.019-1.785-0.058
			c-0.334-0.039-0.551-0.106-0.647-0.197c-0.096-0.094-0.145-0.265-0.145-0.515V6.585c0-0.019-0.008-0.034-0.024-0.044
			c-0.016-0.01-0.031-0.008-0.044,0.006c-0.167,0.114-0.383,0.249-0.646,0.402c-0.117,0.065-0.237,0.075-0.363,0.034
			c-0.125-0.042-0.217-0.123-0.275-0.245s-0.067-0.243-0.028-0.364c0.039-0.121,0.116-0.216,0.231-0.279
			c0.727-0.397,1.357-0.854,1.891-1.365c0.013-0.013,0.015-0.026,0.005-0.038c-0.01-0.014-0.022-0.019-0.033-0.019h-0.454
			c-0.148,0-0.277-0.055-0.386-0.164c-0.109-0.11-0.164-0.237-0.164-0.384V2.384c0-0.146,0.055-0.275,0.164-0.385
			c0.109-0.108,0.238-0.163,0.386-0.163h0.57c0.058,0,0.085-0.03,0.085-0.088V1.585c0-0.057-0.028-0.086-0.085-0.086H56.66
			c-0.109,0-0.205-0.04-0.29-0.12c-0.083-0.079-0.125-0.174-0.125-0.284c0-0.108,0.042-0.204,0.125-0.288
			c0.084-0.083,0.18-0.125,0.29-0.125h1.573c0.058,0,0.085-0.024,0.085-0.077V0.558c0-0.141,0.049-0.261,0.146-0.356
			c0.096-0.096,0.216-0.143,0.357-0.143c0.142,0,0.263,0.047,0.362,0.143c0.1,0.096,0.15,0.215,0.15,0.356v0.047
			c0,0.052,0.026,0.077,0.077,0.077h2.248c0.058,0,0.087-0.024,0.087-0.077V0.558c0-0.141,0.05-0.261,0.149-0.356
			c0.099-0.096,0.22-0.143,0.362-0.143c0.141,0,0.261,0.047,0.357,0.143c0.095,0.096,0.144,0.215,0.144,0.356v0.047
			c0,0.052,0.025,0.077,0.077,0.077h1.582c0.109,0,0.206,0.042,0.291,0.125c0.083,0.084,0.125,0.18,0.125,0.288
			c0,0.11-0.042,0.204-0.125,0.284c-0.084,0.08-0.181,0.12-0.291,0.12H62.834z M63.616,5.824h-5.239
			c-0.059,0-0.106,0.02-0.144,0.058l-0.145,0.115c-0.014,0.014-0.005,0.02,0.019,0.02c0.09,0,0.164,0.029,0.222,0.087
			c0.057,0.057,0.087,0.132,0.087,0.221V6.41c0,0.038,0.019,0.058,0.057,0.058c1.158-0.089,2.319-0.247,3.483-0.471
			c0.245-0.045,0.432,0.038,0.561,0.249c0.05,0.078,0.058,0.158,0.019,0.241c-0.04,0.083-0.103,0.135-0.193,0.154
			c-1.28,0.243-2.561,0.416-3.841,0.519c-0.059,0-0.086,0.028-0.086,0.085v0.038c0,0.109,0.068,0.174,0.207,0.194
			c0.138,0.021,0.6,0.027,1.384,0.027c0.611,0,1.014-0.008,1.206-0.027c0.194-0.02,0.323-0.073,0.387-0.164
			c0.193-0.274,0.373-0.404,0.541-0.385h0.029c0.134,0.013,0.244,0.069,0.329,0.167c0.083,0.101,0.119,0.218,0.105,0.353
			c-0.039,0.282-0.132,0.478-0.28,0.587c-0.025,0.025-0.019,0.038,0.02,0.038c0.058,0,0.131,0.002,0.222,0.005
			s0.154,0.005,0.193,0.005c0.218,0,0.387-0.051,0.506-0.153c0.118-0.104,0.216-0.313,0.289-0.63
			c0.075-0.317,0.121-0.78,0.141-1.389C63.693,5.854,63.668,5.824,63.616,5.824z M62.844,2.509h-4.612
			c-0.058,0-0.087,0.028-0.087,0.086v0.269c0,0.051,0.029,0.077,0.087,0.077h4.612c0.058,0,0.087-0.025,0.087-0.077V2.595
			C62.931,2.537,62.901,2.509,62.844,2.509z M62.931,3.894V3.625c0-0.059-0.029-0.088-0.087-0.088h-4.611
			c-0.058,0-0.087,0.029-0.087,0.088v0.269c0,0.058,0.029,0.085,0.087,0.085h4.611C62.901,3.979,62.931,3.951,62.931,3.894z
			 M59.332,1.585v0.164c0,0.058,0.029,0.088,0.087,0.088h2.238c0.058,0,0.087-0.03,0.087-0.088V1.585
			c0-0.057-0.03-0.086-0.087-0.086h-2.238C59.361,1.499,59.332,1.528,59.332,1.585z"/>
		<path fill="#FFFFFF" d="M66.337,2.547L66.317,2.5c-0.09-0.302,0.007-0.562,0.29-0.779c0.463-0.346,0.891-0.714,1.283-1.104
			c0.264-0.263,0.572-0.395,0.926-0.395h0.048c0.34,0,0.649,0.133,0.926,0.395c0.264,0.255,0.521,0.477,0.772,0.663
			c0.078,0.063,0.135,0.128,0.174,0.192c0.025,0.039,0.051,0.039,0.078,0c0.174-0.379,0.299-0.686,0.376-0.923
			c0.045-0.129,0.122-0.227,0.231-0.298c0.109-0.07,0.228-0.096,0.355-0.077c0.123,0.019,0.22,0.081,0.291,0.188
			s0.086,0.216,0.048,0.331l-0.058,0.173c-0.012,0.052,0.003,0.077,0.049,0.077h2.75c0.123,0,0.228,0.044,0.319,0.134
			c0.089,0.09,0.135,0.196,0.135,0.318s-0.043,0.226-0.13,0.313c-0.087,0.086-0.195,0.13-0.324,0.13h-1.351
			c-0.052,0-0.078,0.027-0.078,0.086v0.941c0,0.052,0.026,0.078,0.078,0.078h1.081c0.148,0,0.276,0.054,0.386,0.164
			c0.109,0.108,0.164,0.235,0.164,0.384v3.222c0,0.627-0.059,1.018-0.178,1.173c-0.12,0.153-0.428,0.23-0.931,0.23
			c-0.122,0-0.3-0.01-0.531-0.028c-0.045,0-0.068,0.024-0.068,0.077V8.5c0,0.14-0.049,0.259-0.149,0.355
			C73.18,8.951,73.058,9,72.918,9c-0.142,0-0.26-0.049-0.357-0.145c-0.097-0.097-0.145-0.215-0.145-0.355V3.912
			c0-0.057-0.029-0.087-0.087-0.087H71.75c-0.058,0-0.086,0.03-0.086,0.087v3.729c0,0.131-0.047,0.24-0.14,0.332
			c-0.093,0.094-0.205,0.141-0.333,0.141c-0.123,0-0.231-0.049-0.328-0.146c-0.007-0.011-0.018-0.016-0.034-0.009
			s-0.024,0.016-0.024,0.029c-0.02,0.146-0.097,0.259-0.232,0.336c-0.109,0.064-0.225,0.078-0.348,0.044
			c-0.123-0.036-0.219-0.107-0.29-0.217c-0.013-0.024-0.032-0.057-0.057-0.096c-0.026-0.039-0.046-0.071-0.059-0.097
			c-0.026-0.05-0.063-0.064-0.115-0.038c-0.927,0.353-1.859,0.635-2.798,0.846c-0.109,0.026-0.213,0.007-0.314-0.058
			c-0.1-0.063-0.162-0.153-0.188-0.269c-0.026-0.108-0.006-0.212,0.058-0.308c0.064-0.097,0.15-0.157,0.261-0.183
			c0.013-0.007,0.029-0.01,0.049-0.01c0.019,0,0.035-0.004,0.048-0.011c0.045-0.012,0.068-0.045,0.068-0.095V2.749
			c0-0.014-0.009-0.022-0.025-0.03c-0.016-0.005-0.027-0.005-0.033,0c-0.09,0.065-0.187,0.079-0.29,0.045
			C66.438,2.729,66.369,2.655,66.337,2.547z M67.515,2.19c-0.013,0.015-0.016,0.024-0.01,0.033c0.006,0.011,0.016,0.017,0.029,0.017
			h0.714c0.058,0,0.086-0.026,0.086-0.078V1.941c0-0.136,0.049-0.25,0.146-0.346c0.097-0.098,0.211-0.144,0.347-0.144
			s0.253,0.046,0.353,0.144c0.099,0.096,0.148,0.21,0.148,0.346v0.222c0,0.051,0.027,0.077,0.078,0.077h0.772
			c0.013,0,0.021-0.008,0.024-0.024C70.205,2.2,70.2,2.188,70.188,2.183c-0.482-0.411-0.914-0.829-1.293-1.251
			c-0.038-0.038-0.074-0.035-0.106,0.011C68.409,1.379,67.983,1.794,67.515,2.19z M69.917,6.334c0.192,0.303,0.447,0.716,0.762,1.24
			c0.006,0.008,0.015,0.011,0.024,0.011c0.01,0,0.015-0.007,0.015-0.02V3.172c0-0.057-0.022-0.096-0.067-0.114L70.556,3.01
			c-0.078-0.04-0.139-0.097-0.184-0.173c-0.007-0.008-0.015-0.01-0.024-0.01c-0.009,0-0.014,0.006-0.014,0.019v2.384
			c0,0.147-0.053,0.276-0.16,0.384c-0.106,0.109-0.233,0.164-0.381,0.164h-1.881c-0.059,0-0.087,0.026-0.087,0.077v1.741
			c0,0.051,0.029,0.07,0.087,0.058c0.354-0.096,0.81-0.243,1.37-0.443c0.051-0.013,0.062-0.041,0.029-0.086
			c-0.104-0.154-0.177-0.27-0.222-0.348c-0.064-0.106-0.08-0.224-0.048-0.345c0.032-0.121,0.102-0.211,0.212-0.269
			c0.116-0.064,0.238-0.079,0.366-0.044C69.747,6.153,69.847,6.226,69.917,6.334z M67.823,3.528c0,0.057,0.029,0.085,0.087,0.085
			h1.477c0.057,0,0.087-0.028,0.087-0.085V3.047c0-0.058-0.03-0.086-0.087-0.086h-1.477c-0.059,0-0.087,0.028-0.087,0.086V3.528z
			 M67.911,4.334c-0.059,0-0.087,0.03-0.087,0.088v0.5c0,0.058,0.029,0.086,0.087,0.086h1.477c0.057,0,0.087-0.028,0.087-0.086v-0.5
			c0-0.058-0.03-0.088-0.087-0.088H67.911z M71.095,2.873C71.082,2.888,71.081,2.9,71.09,2.917c0.01,0.016,0.024,0.023,0.043,0.023
			h1.196c0.059,0,0.087-0.025,0.087-0.077V1.922c0-0.058-0.029-0.085-0.087-0.085h-0.579c-0.058,0-0.097,0.021-0.115,0.066
			C71.449,2.287,71.269,2.61,71.095,2.873z M73.429,3.912v3.201c0,0.057,0.027,0.087,0.078,0.087c0.193,0.013,0.295,0.02,0.31,0.02
			c0.181,0,0.284-0.023,0.313-0.068s0.043-0.191,0.043-0.442V3.912c0-0.057-0.025-0.087-0.078-0.087h-0.588
			C73.456,3.825,73.429,3.855,73.429,3.912z"/>
		<path fill="#FFFFFF" d="M77.473,8.902c-0.141,0-0.262-0.05-0.362-0.149c-0.101-0.1-0.149-0.222-0.149-0.37V1.039
			c0-0.148,0.054-0.276,0.159-0.386c0.107-0.108,0.234-0.163,0.381-0.163h6.929c0.123,0,0.227,0.041,0.313,0.125
			c0.087,0.082,0.13,0.185,0.13,0.307s-0.043,0.226-0.13,0.309c-0.087,0.081-0.191,0.123-0.313,0.123h-6.349
			c-0.059,0-0.087,0.029-0.087,0.088v6.058c0,0.05,0.029,0.075,0.087,0.075h6.446c0.123,0,0.227,0.045,0.313,0.13
			c0.087,0.087,0.13,0.191,0.13,0.313c0,0.121-0.043,0.223-0.13,0.302c-0.086,0.08-0.19,0.121-0.313,0.121h-6.476
			c-0.038,0-0.058,0.022-0.058,0.067c0,0.108-0.039,0.202-0.116,0.278c-0.077,0.077-0.17,0.116-0.279,0.116H77.473z M78.669,6.431
			c0.83-0.524,1.634-1.186,2.413-1.979c0.044-0.046,0.044-0.084,0-0.116c-0.567-0.486-1.184-0.953-1.853-1.403
			c-0.104-0.07-0.163-0.168-0.179-0.293c-0.016-0.126,0.018-0.233,0.103-0.323c0.089-0.102,0.202-0.163,0.337-0.183
			c0.135-0.019,0.258,0.01,0.366,0.087c0.7,0.475,1.322,0.942,1.863,1.404c0.044,0.032,0.083,0.028,0.116-0.011
			c0.461-0.551,0.874-1.111,1.235-1.683c0.077-0.121,0.184-0.2,0.318-0.234c0.135-0.036,0.263-0.018,0.386,0.052
			c0.122,0.071,0.199,0.174,0.231,0.309c0.032,0.134,0.013,0.259-0.058,0.375c-0.387,0.608-0.839,1.225-1.36,1.846
			c-0.039,0.051-0.035,0.096,0.009,0.135c0.547,0.507,1.125,1.083,1.737,1.73c0.09,0.097,0.131,0.21,0.125,0.34
			c-0.006,0.133-0.059,0.242-0.155,0.333c-0.102,0.09-0.222,0.13-0.356,0.12c-0.135-0.011-0.248-0.063-0.338-0.16
			c-0.558-0.595-1.113-1.149-1.659-1.662c-0.039-0.038-0.078-0.038-0.116,0c-0.83,0.853-1.66,1.544-2.489,2.076
			c-0.129,0.084-0.266,0.111-0.41,0.088c-0.146-0.025-0.267-0.094-0.363-0.202c-0.083-0.096-0.116-0.21-0.096-0.342
			C78.495,6.603,78.56,6.501,78.669,6.431z"/>
		<path fill="#FFFFFF" d="M88.85,8.085c-0.496,0-0.95-0.289-1.361-0.865c-0.412-0.576-0.618-1.282-0.618-2.115
			c0-1.225,0.419-2.219,1.254-2.986c0.837-0.765,1.93-1.147,3.281-1.147c1.087,0,1.986,0.34,2.696,1.019
			c0.712,0.68,1.066,1.541,1.066,2.586c0,1-0.233,1.821-0.698,2.463c-0.467,0.64-1.105,1.047-1.916,1.221
			c-0.129,0.025-0.248,0-0.357-0.077s-0.181-0.183-0.212-0.318c-0.027-0.121-0.004-0.233,0.067-0.336
			c0.07-0.103,0.167-0.171,0.289-0.202c0.599-0.161,1.059-0.474,1.38-0.942c0.322-0.468,0.483-1.071,0.483-1.809
			c0-0.724-0.23-1.333-0.69-1.825c-0.461-0.494-1.051-0.776-1.771-0.848c-0.052-0.012-0.084,0.015-0.097,0.078
			c-0.147,1.212-0.322,2.231-0.525,3.063c-0.203,0.829-0.429,1.457-0.681,1.883c-0.251,0.426-0.502,0.727-0.753,0.899
			C89.438,7.998,89.159,8.085,88.85,8.085z M90.577,1.951c-0.843,0.146-1.51,0.503-2.002,1.067
			c-0.492,0.564-0.737,1.259-0.737,2.086c0,0.544,0.114,1.017,0.342,1.417c0.228,0.402,0.452,0.602,0.671,0.602
			c0.104,0,0.209-0.043,0.318-0.131c0.109-0.085,0.231-0.248,0.366-0.484C89.67,6.271,89.8,5.97,89.926,5.604
			c0.125-0.364,0.252-0.856,0.381-1.476c0.128-0.617,0.241-1.322,0.337-2.109c0-0.02-0.006-0.037-0.019-0.053
			C90.613,1.95,90.597,1.945,90.577,1.951z"/>
		<path fill="#FFFFFF" d="M97.341,6.268c-0.123,0.007-0.23-0.033-0.323-0.12c-0.094-0.087-0.144-0.193-0.149-0.323
			c-0.007-0.121,0.033-0.229,0.12-0.322c0.088-0.093,0.196-0.142,0.324-0.148l2.953-0.095c0.052,0,0.077-0.03,0.077-0.088
			l-0.174-2.086c0-0.059-0.029-0.086-0.087-0.086l-2.354,0.086c-0.122,0.007-0.229-0.033-0.323-0.12s-0.143-0.194-0.15-0.323
			c-0.006-0.12,0.034-0.229,0.121-0.32c0.087-0.094,0.195-0.144,0.324-0.149l2.306-0.077c0.052,0,0.077-0.029,0.077-0.087
			l-0.086-0.961c-0.012-0.147,0.031-0.277,0.131-0.39s0.22-0.171,0.362-0.178c0.147-0.013,0.278,0.03,0.391,0.13
			s0.172,0.22,0.18,0.36l0.085,1c0,0.051,0.031,0.077,0.087,0.077l2.692-0.086c0.128-0.007,0.238,0.033,0.328,0.12
			c0.088,0.086,0.137,0.19,0.144,0.313c0.006,0.129-0.035,0.239-0.125,0.331c-0.089,0.094-0.196,0.143-0.318,0.148l-2.644,0.087
			c-0.051,0-0.077,0.028-0.077,0.086l0.173,2.086c0,0.053,0.029,0.077,0.087,0.077l2.817-0.085c0.122-0.007,0.229,0.033,0.322,0.119
			c0.094,0.087,0.144,0.194,0.15,0.323c0.007,0.121-0.033,0.229-0.121,0.322c-0.086,0.093-0.194,0.143-0.324,0.148l-2.768,0.086
			c-0.052,0-0.078,0.029-0.078,0.087l0.154,1.895c0.014,0.146-0.029,0.276-0.125,0.389c-0.097,0.112-0.215,0.171-0.357,0.178
			c-0.148,0.013-0.28-0.031-0.395-0.131c-0.116-0.1-0.178-0.22-0.184-0.359l-0.154-1.933c0-0.059-0.03-0.087-0.086-0.087
			L97.341,6.268z"/>
		<path fill="#FFFFFF" d="M108.052,5.018c-0.161-0.64-0.307-1.193-0.435-1.654c-0.032-0.122-0.017-0.235,0.048-0.341
			c0.063-0.106,0.161-0.175,0.289-0.206c0.129-0.026,0.25-0.006,0.363,0.062s0.188,0.167,0.227,0.294
			c0.18,0.628,0.328,1.177,0.443,1.644c0.034,0.122,0.013,0.239-0.057,0.352c-0.072,0.11-0.171,0.184-0.3,0.216
			c-0.127,0.025-0.249,0.004-0.361-0.067C108.157,5.245,108.084,5.146,108.052,5.018z M113.3,2.509
			c0.136,0.005,0.248,0.058,0.339,0.153c0.089,0.097,0.132,0.211,0.126,0.347c-0.084,1.711-0.469,2.968-1.154,3.772
			c-0.686,0.806-1.796,1.325-3.334,1.563c-0.122,0.018-0.233-0.008-0.333-0.078c-0.099-0.071-0.165-0.169-0.198-0.298
			c-0.025-0.121-0.002-0.231,0.068-0.331c0.07-0.099,0.167-0.158,0.289-0.178c1.313-0.224,2.241-0.662,2.784-1.312
			c0.544-0.65,0.852-1.713,0.922-3.187c0.008-0.129,0.059-0.236,0.154-0.327S113.172,2.502,113.3,2.509z M111.048,4.987
			c-0.067,0.109-0.165,0.181-0.295,0.213c-0.129,0.032-0.251,0.013-0.367-0.058c-0.115-0.07-0.189-0.171-0.222-0.298
			c-0.167-0.66-0.318-1.237-0.453-1.729c-0.032-0.122-0.015-0.238,0.053-0.348c0.067-0.108,0.166-0.18,0.294-0.211
			s0.252-0.012,0.371,0.063c0.118,0.074,0.194,0.175,0.228,0.303c0.219,0.827,0.366,1.397,0.444,1.712
			C111.133,4.761,111.116,4.88,111.048,4.987z"/>
		<path fill="#FFFFFF" d="M123.771,7.41c0.096,0.097,0.145,0.215,0.145,0.353s-0.048,0.255-0.145,0.352
			c-0.097,0.096-0.214,0.142-0.353,0.14c-0.138-0.004-0.256-0.053-0.353-0.148c-0.875-0.886-1.659-1.645-2.355-2.28
			c-0.038-0.038-0.081-0.038-0.127,0c-0.964,0.897-2.073,1.674-3.327,2.327c-0.115,0.064-0.238,0.075-0.361,0.034
			c-0.126-0.042-0.222-0.121-0.285-0.235c-0.064-0.114-0.076-0.234-0.034-0.355c0.043-0.122,0.121-0.216,0.236-0.28
			c1.242-0.667,2.315-1.44,3.224-2.32c0.907-0.883,1.612-1.823,2.112-2.822c0.02-0.045,0.003-0.067-0.048-0.067h-4.4
			c-0.13,0-0.24-0.046-0.333-0.14c-0.094-0.093-0.14-0.203-0.14-0.332c0-0.128,0.046-0.236,0.14-0.33
			c0.094-0.095,0.204-0.141,0.333-0.141h4.95c0.019,0,0.033-0.008,0.043-0.024c0.01-0.016,0.012-0.029,0.004-0.044
			c-0.026-0.037-0.06-0.099-0.105-0.182c-0.046-0.083-0.082-0.147-0.106-0.191c-0.052-0.098-0.063-0.195-0.03-0.299
			c0.033-0.102,0.096-0.179,0.194-0.231c0.102-0.051,0.207-0.06,0.313-0.028c0.105,0.033,0.185,0.096,0.236,0.192
			c0.226,0.403,0.357,0.641,0.396,0.711c0.05,0.097,0.061,0.201,0.028,0.313c-0.031,0.112-0.099,0.191-0.202,0.236h-0.01
			l-0.018,0.01c-0.058,0.024-0.088,0.06-0.088,0.105c-0.014,0.295-0.077,0.561-0.192,0.798c-0.418,0.846-0.998,1.68-1.737,2.499
			c-0.034,0.032-0.029,0.07,0.01,0.115C122.275,5.957,123.069,6.713,123.771,7.41z M124.602,0.221
			c0.18,0.321,0.315,0.564,0.405,0.73c0.05,0.103,0.059,0.206,0.024,0.312c-0.036,0.107-0.105,0.185-0.208,0.235
			c-0.104,0.046-0.209,0.051-0.319,0.016c-0.109-0.035-0.191-0.104-0.24-0.207c-0.083-0.159-0.216-0.4-0.397-0.721
			c-0.05-0.096-0.062-0.199-0.033-0.308c0.028-0.108,0.095-0.187,0.196-0.231c0.104-0.051,0.208-0.061,0.319-0.028
			C124.458,0.051,124.543,0.117,124.602,0.221z"/>
		<path fill="#FFFFFF" d="M126.811,6.066c-0.116,0-0.216-0.043-0.299-0.126c-0.084-0.082-0.127-0.182-0.127-0.297
			s0.042-0.213,0.127-0.294c0.083-0.08,0.183-0.12,0.299-0.12h0.482c0.058,0,0.087-0.028,0.087-0.086v-1.73
			c0-0.147,0.051-0.277,0.158-0.387c0.107-0.108,0.234-0.163,0.381-0.163h2.238c0.059,0,0.086-0.024,0.086-0.076V2.7
			c0-0.146,0.055-0.271,0.159-0.374c0.107-0.103,0.231-0.153,0.373-0.153c0.14,0,0.266,0.051,0.371,0.153
			c0.106,0.103,0.159,0.228,0.159,0.374v0.087c0,0.052,0.03,0.077,0.087,0.077h2.239c0.147,0,0.275,0.055,0.385,0.163
			c0.109,0.108,0.163,0.238,0.163,0.387v1.729c0,0.058,0.025,0.086,0.077,0.086h0.482c0.116,0,0.216,0.04,0.3,0.12
			c0.083,0.079,0.126,0.178,0.126,0.294c0,0.115-0.042,0.215-0.126,0.297c-0.083,0.083-0.184,0.126-0.3,0.126h-3.117
			c-0.019,0-0.033,0.007-0.043,0.023c-0.009,0.016-0.007,0.03,0.004,0.043c0.477,0.758,1.479,1.326,3.002,1.712
			c0.122,0.026,0.212,0.095,0.274,0.206c0.062,0.112,0.073,0.23,0.033,0.351c-0.044,0.13-0.127,0.226-0.245,0.289
			c-0.12,0.064-0.243,0.08-0.373,0.048c-0.751-0.205-1.422-0.492-2.01-0.86c-0.589-0.368-1.05-0.777-1.386-1.227
			c-0.024-0.044-0.057-0.047-0.094-0.009c-0.342,0.448-0.819,0.861-1.434,1.24c-0.614,0.379-1.308,0.667-2.078,0.865
			c-0.129,0.032-0.253,0.015-0.373-0.053c-0.119-0.067-0.2-0.164-0.246-0.294c-0.045-0.121-0.038-0.237,0.023-0.346
			c0.063-0.108,0.157-0.18,0.285-0.211c1.525-0.379,2.525-0.949,3.002-1.712c0.012-0.014,0.014-0.027,0.005-0.044
			s-0.024-0.023-0.044-0.023L126.811,6.066L126.811,6.066z M133.087,2.456c-0.099,0.1-0.221,0.149-0.363,0.149
			c-0.141,0-0.26-0.05-0.356-0.149c-0.096-0.1-0.144-0.219-0.144-0.36V1.825c0-0.057-0.029-0.086-0.087-0.086h-2.73
			c-0.051,0-0.077,0.029-0.077,0.086v0.27c0,0.141-0.05,0.262-0.149,0.36c-0.1,0.099-0.221,0.149-0.362,0.149
			c-0.142,0-0.261-0.051-0.357-0.149c-0.097-0.1-0.145-0.22-0.145-0.36v-0.27c0-0.057-0.028-0.086-0.086-0.086h-1.313
			c-0.122,0-0.226-0.042-0.31-0.124c-0.083-0.085-0.126-0.187-0.126-0.309c0-0.121,0.043-0.223,0.126-0.307
			c0.083-0.083,0.188-0.126,0.31-0.126h1.313c0.058,0,0.086-0.029,0.086-0.086V0.616c0-0.142,0.048-0.262,0.145-0.361
			c0.096-0.099,0.215-0.148,0.357-0.148c0.142,0,0.263,0.05,0.362,0.148c0.099,0.1,0.149,0.22,0.149,0.361v0.172
			c0,0.057,0.025,0.086,0.077,0.086h2.73c0.059,0,0.087-0.029,0.087-0.086V0.616c0-0.142,0.048-0.262,0.144-0.361
			c0.097-0.099,0.215-0.148,0.356-0.148c0.143,0,0.263,0.05,0.363,0.148c0.1,0.1,0.149,0.22,0.149,0.361v0.172
			c0,0.057,0.03,0.086,0.087,0.086h1.312c0.123,0,0.226,0.043,0.31,0.126c0.083,0.084,0.126,0.186,0.126,0.307
			c0,0.122-0.042,0.224-0.126,0.309c-0.083,0.082-0.187,0.124-0.31,0.124h-1.312c-0.058,0-0.087,0.029-0.087,0.086v0.27
			C133.237,2.237,133.187,2.356,133.087,2.456z M128.363,3.769v1.375c0,0.058,0.029,0.086,0.087,0.086h1.708
			c0.058,0,0.086-0.028,0.086-0.086V3.769c0-0.051-0.029-0.076-0.086-0.076h-1.708C128.393,3.692,128.363,3.717,128.363,3.769z
			 M133.102,3.692h-1.708c-0.057,0-0.086,0.024-0.086,0.076v1.375c0,0.058,0.03,0.086,0.086,0.086h1.708
			c0.057,0,0.087-0.028,0.087-0.086V3.769C133.189,3.717,133.159,3.692,133.102,3.692z"/>
		<path fill="#FFFFFF" d="M137.31,3.595c-0.116,0.064-0.238,0.077-0.363,0.039c-0.125-0.039-0.216-0.116-0.273-0.23
			c-0.065-0.123-0.077-0.246-0.034-0.371c0.042-0.125,0.12-0.224,0.236-0.293c1.12-0.635,2.148-1.353,3.087-2.155
			c0.276-0.235,0.595-0.354,0.956-0.354h0.191c0.362,0,0.68,0.118,0.958,0.354c0.918,0.79,1.949,1.508,3.088,2.155
			c0.114,0.069,0.194,0.168,0.236,0.293c0.041,0.125,0.03,0.248-0.034,0.371c-0.058,0.114-0.151,0.191-0.279,0.23
			c-0.129,0.038-0.252,0.025-0.367-0.039c-0.398-0.231-0.694-0.406-0.887-0.528c-0.04-0.025-0.058-0.015-0.058,0.038V3.21
			c0,0.147-0.055,0.276-0.165,0.386c-0.11,0.108-0.238,0.162-0.386,0.162h-4.4c-0.148,0-0.276-0.053-0.385-0.162
			c-0.111-0.109-0.166-0.237-0.166-0.386V3.104c0-0.052-0.024-0.06-0.075-0.028C138.046,3.166,137.753,3.339,137.31,3.595z
			 M140.58,5.67c-0.207,0.52-0.495,1.155-0.868,1.904c-0.014,0.015-0.014,0.029,0,0.049c0.013,0.019,0.029,0.028,0.046,0.028
			c1.067-0.077,2.252-0.196,3.552-0.355c0.058,0,0.074-0.026,0.049-0.077c-0.026-0.047-0.079-0.142-0.156-0.29
			c-0.077-0.146-0.138-0.259-0.183-0.336c-0.064-0.109-0.075-0.225-0.033-0.347c0.042-0.12,0.121-0.208,0.236-0.259
			c0.13-0.058,0.256-0.064,0.382-0.02c0.125,0.047,0.225,0.129,0.293,0.25c0.451,0.788,0.811,1.437,1.081,1.943
			c0.064,0.114,0.075,0.232,0.029,0.354c-0.046,0.121-0.129,0.209-0.251,0.26s-0.251,0.055-0.386,0.011
			c-0.137-0.046-0.236-0.13-0.299-0.25c-0.091-0.168-0.158-0.296-0.203-0.385c-0.026-0.052-0.064-0.072-0.116-0.058
			c-2.181,0.289-4.216,0.472-6.107,0.548c-0.122,0.006-0.23-0.03-0.323-0.11c-0.094-0.082-0.144-0.181-0.15-0.303
			c-0.006-0.122,0.032-0.227,0.112-0.313c0.079-0.088,0.182-0.134,0.303-0.14c0.374-0.014,0.652-0.026,0.839-0.04
			c0.051,0,0.093-0.028,0.125-0.085c0.348-0.662,0.659-1.327,0.938-2c0.006-0.021,0.003-0.035-0.012-0.049
			c-0.013-0.013-0.028-0.018-0.048-0.018h-2.085c-0.121,0-0.226-0.042-0.308-0.126c-0.084-0.083-0.126-0.186-0.126-0.307
			c0-0.123,0.042-0.226,0.126-0.309c0.082-0.083,0.187-0.125,0.308-0.125h7.333c0.123,0,0.226,0.042,0.309,0.125
			c0.083,0.083,0.126,0.186,0.126,0.309c0,0.121-0.043,0.224-0.126,0.307c-0.083,0.084-0.187,0.126-0.309,0.126h-3.994
			C140.643,5.586,140.605,5.613,140.58,5.67z M138.505,2.873c-0.007,0.007-0.01,0.017-0.01,0.029s0.006,0.019,0.019,0.019h4.997
			c0.015,0,0.022-0.007,0.025-0.019c0.004-0.013,0.001-0.022-0.005-0.029c-0.901-0.589-1.721-1.23-2.46-1.922
			c-0.039-0.039-0.077-0.039-0.116,0C140.204,1.657,139.386,2.297,138.505,2.873z"/>
		<path fill="#FFFFFF" d="M147.422,2.768c-0.122,0-0.226-0.039-0.31-0.118c-0.082-0.081-0.125-0.182-0.125-0.304
			s0.043-0.228,0.125-0.313c0.083-0.087,0.188-0.13,0.31-0.13h2.798c0.122,0,0.225,0.043,0.308,0.13
			c0.084,0.085,0.126,0.19,0.126,0.313s-0.042,0.223-0.126,0.304c-0.083,0.079-0.187,0.118-0.308,0.118H147.422z M147.672,0.538
			h2.297c0.114,0,0.213,0.042,0.294,0.125c0.079,0.083,0.12,0.182,0.12,0.298c0,0.115-0.041,0.214-0.12,0.298
			c-0.081,0.083-0.179,0.124-0.294,0.124h-2.297c-0.116,0-0.214-0.041-0.294-0.124c-0.081-0.084-0.121-0.183-0.121-0.298
			c0-0.116,0.04-0.215,0.121-0.298C147.458,0.579,147.556,0.538,147.672,0.538z M150.413,6.612v1.405
			c0,0.146-0.055,0.275-0.165,0.384c-0.109,0.109-0.236,0.165-0.385,0.165h-1.592c-0.039,0-0.059,0.015-0.059,0.048
			c0,0.089-0.032,0.168-0.096,0.234c-0.064,0.067-0.143,0.102-0.233,0.102h-0.143c-0.135,0-0.25-0.047-0.343-0.14
			c-0.093-0.093-0.139-0.206-0.139-0.342V6.612c0-0.146,0.053-0.275,0.159-0.384c0.106-0.109,0.232-0.163,0.38-0.163h2.066
			c0.147,0,0.275,0.054,0.385,0.163C150.358,6.337,150.413,6.466,150.413,6.612z M147.74,4.144c-0.111,0-0.206-0.042-0.291-0.124
			c-0.083-0.085-0.124-0.18-0.124-0.289c0-0.11,0.041-0.204,0.124-0.285c0.083-0.079,0.179-0.119,0.291-0.119h2.22
			c0.109,0,0.203,0.04,0.283,0.119c0.081,0.08,0.121,0.175,0.121,0.285c0,0.109-0.04,0.203-0.121,0.289
			c-0.081,0.082-0.174,0.124-0.283,0.124H147.74z M147.74,5.518c-0.111,0-0.206-0.042-0.291-0.126
			c-0.083-0.083-0.124-0.179-0.124-0.288c0-0.108,0.041-0.204,0.124-0.288c0.083-0.083,0.179-0.125,0.291-0.125h2.22
			c0.109,0,0.203,0.042,0.283,0.125c0.081,0.083,0.121,0.18,0.121,0.288s-0.04,0.205-0.121,0.288
			c-0.081,0.084-0.174,0.126-0.283,0.126H147.74z M149.496,7.662V6.96c0-0.051-0.028-0.077-0.086-0.077h-1.11
			c-0.058,0-0.086,0.026-0.086,0.077v0.702c0,0.057,0.029,0.085,0.086,0.085h1.11C149.468,7.747,149.496,7.719,149.496,7.662z
			 M155.285,2.894c0.123,0,0.225,0.042,0.309,0.125c0.083,0.083,0.125,0.186,0.125,0.308c0,0.121-0.042,0.225-0.125,0.308
			c-0.084,0.083-0.187,0.124-0.309,0.124h-1.504c-0.058,0-0.086,0.029-0.086,0.087v0.962c0,0.058,0.029,0.086,0.086,0.086h1.101
			c0.146,0,0.276,0.052,0.386,0.158c0.109,0.106,0.164,0.233,0.164,0.381v2.894c0,0.141-0.05,0.261-0.149,0.36
			c-0.101,0.1-0.222,0.149-0.364,0.149h-0.086c-0.115,0-0.213-0.042-0.294-0.126c-0.08-0.083-0.12-0.183-0.12-0.298
			c0-0.039-0.021-0.057-0.068-0.057h-2.374c-0.045,0-0.067,0.018-0.067,0.057c0,0.115-0.042,0.215-0.122,0.298
			c-0.079,0.084-0.178,0.126-0.294,0.126h-0.066c-0.136,0-0.25-0.048-0.345-0.141c-0.092-0.093-0.138-0.206-0.138-0.341V5.432
			c0-0.147,0.055-0.274,0.164-0.381c0.11-0.106,0.237-0.158,0.385-0.158h1.101c0.059,0,0.086-0.028,0.086-0.086V3.845
			c0-0.058-0.028-0.087-0.086-0.087h-1.505c-0.122,0-0.226-0.041-0.309-0.124c-0.083-0.083-0.125-0.187-0.125-0.308
			c0-0.122,0.042-0.225,0.125-0.308c0.083-0.083,0.188-0.125,0.309-0.125h1.505c0.059,0,0.086-0.029,0.086-0.088v-0.98
			c0-0.057-0.024-0.079-0.078-0.066c-0.534,0.063-0.955,0.105-1.264,0.124c-0.121,0.008-0.227-0.028-0.317-0.105
			c-0.09-0.077-0.143-0.176-0.155-0.298c-0.007-0.121,0.032-0.228,0.116-0.317c0.083-0.089,0.187-0.141,0.308-0.153
			c1.325-0.097,2.516-0.286,3.57-0.568c0.114-0.032,0.227-0.017,0.333,0.044s0.173,0.149,0.198,0.264
			c0.033,0.122,0.017,0.237-0.048,0.346c-0.063,0.11-0.158,0.181-0.279,0.213c-0.31,0.082-0.742,0.176-1.293,0.278
			c-0.052,0.014-0.078,0.045-0.078,0.096v1.125c0,0.058,0.028,0.088,0.087,0.088H155.285L155.285,2.894z M154.33,5.681h-2.345
			c-0.051,0-0.078,0.029-0.078,0.087v1.711c0,0.052,0.027,0.078,0.078,0.078h2.345c0.059,0,0.087-0.025,0.087-0.078V5.768
			C154.418,5.71,154.389,5.681,154.33,5.681z"/>
		<path fill="#FFFFFF" d="M158.182,8.057c-0.123,0.063-0.248,0.075-0.372,0.034c-0.126-0.043-0.221-0.122-0.285-0.236
			c-0.064-0.116-0.076-0.232-0.034-0.355c0.042-0.121,0.121-0.216,0.237-0.279c1.242-0.667,2.317-1.441,3.225-2.321
			c0.905-0.882,1.61-1.821,2.112-2.822c0.02-0.045,0.003-0.066-0.048-0.066h-4.401c-0.129,0-0.24-0.047-0.333-0.14
			c-0.094-0.094-0.14-0.203-0.14-0.332c0-0.128,0.046-0.238,0.14-0.332c0.093-0.093,0.204-0.14,0.333-0.14h5.134
			c0.127,0,0.239,0.047,0.333,0.14c0.094,0.094,0.141,0.204,0.141,0.332c0,0.326-0.063,0.622-0.194,0.885
			c-0.412,0.853-0.99,1.688-1.737,2.51c-0.032,0.031-0.027,0.069,0.011,0.114c0.889,0.814,1.683,1.569,2.385,2.269
			c0.095,0.096,0.143,0.214,0.143,0.352s-0.048,0.255-0.143,0.352c-0.099,0.097-0.216,0.142-0.354,0.139
			c-0.138-0.003-0.255-0.052-0.352-0.147c-0.875-0.886-1.66-1.645-2.355-2.279c-0.037-0.039-0.079-0.039-0.124,0
			C160.501,6.651,159.396,7.428,158.182,8.057z"/>
		<path fill="#FFFFFF" d="M168.138,4.873c-0.089,0.097-0.202,0.148-0.336,0.154c-0.135,0.007-0.255-0.036-0.357-0.125
			c-0.097-0.083-0.147-0.19-0.155-0.323c-0.007-0.132,0.036-0.245,0.126-0.341c0.868-0.961,1.418-2.051,1.65-3.269
			c0.025-0.135,0.094-0.247,0.204-0.336c0.109-0.09,0.23-0.132,0.364-0.126c0.137,0.015,0.248,0.069,0.337,0.169
			c0.092,0.101,0.124,0.217,0.099,0.351c-0.007,0.039-0.018,0.097-0.035,0.174c-0.016,0.077-0.027,0.135-0.034,0.173
			c-0.013,0.051,0.011,0.078,0.069,0.078h3.686c0.148,0,0.278,0.054,0.391,0.163s0.167,0.236,0.159,0.385
			c-0.044,1.986-0.542,3.481-1.495,4.483c-0.952,1.004-2.438,1.617-4.458,1.843c-0.129,0.012-0.246-0.021-0.348-0.102
			c-0.104-0.079-0.163-0.184-0.183-0.313c-0.019-0.122,0.008-0.232,0.081-0.331c0.074-0.1,0.175-0.156,0.304-0.17
			c1.698-0.21,2.936-0.698,3.711-1.461c0.774-0.763,1.21-1.931,1.308-3.509c0-0.051-0.025-0.077-0.079-0.077h-3.348
			c-0.051,0-0.086,0.025-0.106,0.077C169.358,3.326,168.84,4.137,168.138,4.873z"/>
		<path fill="#FFFFFF" d="M177.256,5.076c-0.141,0-0.262-0.048-0.357-0.144c-0.096-0.098-0.145-0.216-0.145-0.357
			c0-0.141,0.048-0.26,0.145-0.355c0.096-0.095,0.216-0.144,0.357-0.144h6.908c0.142,0,0.26,0.049,0.358,0.144
			c0.096,0.096,0.144,0.215,0.144,0.355c0,0.142-0.048,0.26-0.144,0.357c-0.098,0.096-0.216,0.144-0.358,0.144H177.256z"/>
		<path fill="#FFFFFF" d="M187.301,8.182c-0.129,0.07-0.264,0.087-0.405,0.053c-0.141-0.035-0.25-0.118-0.329-0.245
			c-0.071-0.115-0.086-0.239-0.048-0.37c0.039-0.133,0.116-0.233,0.232-0.304c0.366-0.225,0.64-0.495,0.819-0.813
			c0.181-0.317,0.307-0.753,0.377-1.307c0.071-0.555,0.106-1.354,0.106-2.399V1.403c0-0.141,0.051-0.265,0.154-0.369
			c0.103-0.107,0.229-0.16,0.376-0.16c0.147,0,0.273,0.053,0.376,0.16c0.104,0.104,0.155,0.229,0.155,0.369v1.394
			c0,1.16-0.059,2.083-0.175,2.77c-0.116,0.687-0.3,1.224-0.553,1.614C188.132,7.572,187.769,7.904,187.301,8.182z M191.151,8.336
			c-0.148,0.005-0.275-0.043-0.382-0.146c-0.107-0.102-0.159-0.23-0.159-0.385V1.403c0-0.141,0.052-0.265,0.159-0.369
			c0.106-0.107,0.23-0.16,0.372-0.16s0.264,0.053,0.37,0.16c0.107,0.104,0.159,0.229,0.159,0.369V7.22
			c0,0.059,0.026,0.08,0.078,0.066c1.262-0.287,2.021-1.252,2.278-2.893c0.019-0.128,0.082-0.232,0.188-0.313
			c0.105-0.078,0.223-0.109,0.352-0.091c0.135,0.019,0.244,0.081,0.328,0.183c0.083,0.104,0.116,0.222,0.096,0.357
			c-0.179,1.172-0.599,2.083-1.258,2.732C193.072,7.913,192.212,8.271,191.151,8.336z"/>
	</g>
	<g>
		<g>
			<path fill="#FFFFFF" d="M0.008,25.286c-0.016-0.478-0.005-0.898,0.014-1.339c0.018-0.437,0.058-0.866,0.094-1.301
				c0.091-0.858,0.211-1.717,0.376-2.563c0.152-0.853,0.357-1.692,0.582-2.532c0.233-0.835,0.5-1.663,0.799-2.483
				c0.605-1.639,1.313-3.252,2.163-4.82C4.253,9.856,4.47,9.468,4.705,9.085c0.227-0.389,0.481-0.764,0.728-1.142
				C5.693,7.571,5.954,7.2,6.238,6.841C6.51,6.476,6.816,6.129,7.111,5.777l0.007-0.01c0.034-0.039,0.07-0.08,0.106-0.112
				c0.854-0.823,1.837-1.642,3.189-2.184c0.669-0.269,1.442-0.449,2.257-0.449c0.813-0.003,1.646,0.197,2.363,0.543
				c0.724,0.344,1.334,0.815,1.835,1.342c0.253,0.27,0.475,0.532,0.689,0.847c0.3,0.445,0.447,0.783,0.587,1.132
				c0.267,0.688,0.398,1.31,0.493,1.909c0.094,0.599,0.141,1.168,0.168,1.728c0.096,2.228-0.095,4.303-0.357,6.363
				c-0.129,1.026-0.296,2.043-0.477,3.055c-0.09,0.506-0.186,1.011-0.292,1.513c-0.105,0.508-0.21,0.999-0.332,1.523
				c-0.214,0.922-1.118,1.492-2.019,1.272c-0.848-0.203-1.391-1.029-1.278-1.894l0.005-0.034c0.061-0.46,0.123-0.96,0.176-1.443
				l0.152-1.462c0.096-0.975,0.171-1.951,0.236-2.921c0.061-0.971,0.097-1.937,0.102-2.887c0.01-0.949-0.017-1.891-0.105-2.775
				c-0.046-0.441-0.104-0.871-0.188-1.26c-0.08-0.39-0.183-0.748-0.293-0.985c-0.048-0.117-0.123-0.228-0.103-0.196
				c-0.068-0.096-0.176-0.209-0.268-0.297c-0.193-0.182-0.392-0.308-0.566-0.373c-0.175-0.068-0.322-0.092-0.492-0.078
				c-0.167,0.008-0.37,0.051-0.611,0.157c-0.481,0.203-1.068,0.66-1.617,1.231l0.113-0.122c-0.222,0.28-0.453,0.553-0.661,0.851
				c-0.219,0.284-0.415,0.594-0.625,0.895c-0.196,0.313-0.399,0.615-0.583,0.94c-0.192,0.316-0.369,0.646-0.547,0.975
				c-0.701,1.33-1.306,2.74-1.825,4.194c-0.521,1.455-0.999,2.942-1.468,4.442l-0.344,1.131c-0.121,0.376-0.232,0.753-0.344,1.133
				l-0.346,1.135c-0.114,0.372-0.23,0.766-0.346,1.108l-0.034,0.105c-0.319,0.952-1.335,1.456-2.264,1.125
				C0.49,26.694,0.032,26.016,0.008,25.286z"/>
			<path fill="#FFFFFF" d="M2.41,16.831l14.138-5.532c0.708-0.277,1.5,0.083,1.771,0.807c0.26,0.698-0.063,1.479-0.72,1.778
				L3.783,20.212c-0.902,0.415-1.962,0-2.366-0.921c-0.405-0.925-0.002-2.009,0.902-2.422C2.347,16.856,2.382,16.841,2.41,16.831z"
				/>
		</g>
		<path fill="#FFFFFF" d="M30.497,9.684c0,0-0.1-0.001-0.284-0.005C30.155,9.687,30.084,9.694,30,9.705
			c-0.098,0.008-0.21,0.021-0.333,0.042c-0.497,0.08-1.204,0.279-1.982,0.743c-0.774,0.45-1.622,1.196-2.227,2.111
			c-0.146,0.225-0.282,0.468-0.375,0.688l-0.116,0.256c-0.013,0.044-0.026,0.089-0.041,0.135c-0.034,0.071-0.063,0.223-0.1,0.334
			c-0.111,0.485-0.128,0.983-0.043,1.427c0.072,0.448,0.274,0.823,0.488,1.087c0.023,0.038,0.054,0.065,0.083,0.094l0.043,0.046
			l0.009,0.012c0.069,0.055-0.091-0.073-0.071-0.057l0.007,0.007l0.014,0.011l0.058,0.045l0.113,0.091l0.055,0.043l0.006-0.001
			c0.016,0.003-0.004,0.003,0.03,0.021c0.125,0.076,0.267,0.135,0.443,0.176c0.348,0.081,0.814,0.072,1.285-0.038
			c0.471-0.105,0.946-0.275,1.37-0.479c0.857-0.398,1.525-0.878,1.911-1.206c0.193-0.167,0.327-0.293,0.404-0.372
			c0.075-0.076,0.114-0.114,0.114-0.114l0.238-0.239c0.563-0.565,1.468-0.557,2.021,0.02c0.396,0.41,0.504,1.003,0.328,1.512
			c0,0-0.05,0.144-0.16,0.39c-0.11,0.243-0.285,0.57-0.542,0.938c-0.254,0.367-0.593,0.765-1.01,1.173
			c-0.421,0.407-0.928,0.816-1.535,1.198c-0.604,0.38-1.309,0.731-2.141,0.986c-0.829,0.253-1.81,0.415-2.918,0.27
			c-0.553-0.074-1.133-0.249-1.68-0.533c-0.137-0.066-0.312-0.178-0.463-0.271l-0.116-0.079l-0.06-0.044l-0.117-0.084l-0.059-0.043
			l-0.015-0.011l-0.093-0.074l-0.043-0.036l-0.174-0.152c-0.114-0.104-0.229-0.208-0.329-0.322c-0.426-0.44-0.763-0.948-1.017-1.483
			c-0.263-0.535-0.443-1.098-0.549-1.662c-0.235-1.132-0.136-2.277,0.134-3.318c0.082-0.265,0.139-0.5,0.257-0.786l0.167-0.413
			l0.131-0.27c0.227-0.484,0.493-0.887,0.773-1.277c0.561-0.769,1.195-1.398,1.856-1.914c0.657-0.523,1.345-0.922,2.015-1.221
			c1.342-0.604,2.614-0.752,3.487-0.72c0.217,0.006,0.414,0.021,0.583,0.039c0.176,0.02,0.349,0.049,0.464,0.068
			c0.18,0.042,0.276,0.063,0.276,0.063c0.848,0.194,1.382,1.054,1.191,1.922C31.881,9.181,31.223,9.69,30.497,9.684z"/>
		<path fill="#FFFFFF" d="M47.884,15.189c-0.044-0.118-0.104-0.238-0.183-0.349c-0.75-1.061-2.092-0.438-3.02-0.054
			c-1.195,0.495-2.374,1.041-3.559,1.564c-0.044,0.019-0.898,0.366-0.893,0.397c-0.052-0.303-0.386-2.878-0.481-3.688
			c0,0,5.295-2.789,5.319-2.8c0.747-0.393,1.513-1.393,0.988-2.257c-0.402-0.66-1.418-0.612-2.048-0.359l-4.569,1.84
			c-0.021-0.387-0.045-0.773-0.059-1.159c-0.021-0.597-0.028-1.19-0.028-1.781c0.001-0.173,0.004-0.706,0.008-0.877
			c1.442-0.62,2.88-1.254,4.331-1.856c1.105-0.457,3.192-1.174,2.576-2.866c-0.632-1.74-2.975-0.614-4.115-0.242
			c-1.555,0.508-3.102,1.047-4.648,1.576c-0.374,0.129-0.756,0.234-1.123,0.374c-0.68,0.261-1.191,0.898-1.264,1.686l-0.021,0.219
			c-0.026,0.659-0.046,1.316-0.048,1.97c0,0.653,0.008,1.304,0.032,1.954c0.043,1.296,0.133,2.586,0.259,3.868
			s0.286,2.559,0.485,3.834c0.201,1.276,0.437,2.545,0.736,3.83l0.063,0.231c0.046,0.157,0.111,0.314,0.199,0.466
			c0.572,1,2.405,1.023,3.384,0.437c0.783-0.426,0.996-0.534,1.773-0.971c1.288-0.724,2.607-1.388,3.882-2.13
			C46.889,17.447,48.433,16.735,47.884,15.189z"/>
		<g>
			<path fill="#FFFFFF" d="M11.02,26.602c0,0,0.079,0.067,0.227,0.188c0.075,0.061,0.165,0.137,0.272,0.224
				c0.107,0.089,0.231,0.166,0.363,0.267c0.13,0.1,0.282,0.204,0.459,0.31c0.171,0.112,0.356,0.229,0.565,0.335
				c0.404,0.236,0.893,0.431,1.421,0.64c0.538,0.186,1.125,0.363,1.765,0.473c0.637,0.113,1.316,0.198,2.027,0.206
				c0.708,0.016,1.443-0.013,2.187-0.104c0.743-0.093,1.497-0.216,2.245-0.394c0.743-0.186,1.484-0.391,2.205-0.633
				c0.72-0.242,1.42-0.51,2.092-0.791c0.673-0.272,1.31-0.582,1.915-0.867c0.603-0.292,1.164-0.592,1.682-0.866
				c0.512-0.29,0.982-0.557,1.399-0.79c0.418-0.234,0.769-0.461,1.065-0.638c0.587-0.364,0.921-0.572,0.921-0.572l0.023-0.015
				c0.564-0.349,1.299-0.163,1.642,0.411c0.323,0.545,0.177,1.249-0.315,1.619c0,0-0.086,0.063-0.243,0.181
				c-0.158,0.116-0.386,0.296-0.688,0.502c-0.305,0.204-0.666,0.463-1.099,0.736c-0.425,0.284-0.924,0.578-1.472,0.891
				c-0.547,0.313-1.154,0.626-1.806,0.939c-0.653,0.314-1.354,0.621-2.093,0.9c-0.737,0.29-1.52,0.54-2.321,0.766
				c-0.802,0.23-1.635,0.406-2.473,0.545c-0.841,0.132-1.692,0.219-2.534,0.244c-0.843,0.023-1.677-0.022-2.478-0.116
				c-0.802-0.095-1.569-0.28-2.279-0.493c-0.713-0.209-1.36-0.51-1.938-0.799c-0.286-0.159-0.561-0.304-0.803-0.475
				c-0.124-0.082-0.243-0.162-0.36-0.24c-0.112-0.083-0.22-0.166-0.324-0.244c-0.213-0.155-0.398-0.317-0.567-0.47
				c-0.172-0.145-0.325-0.29-0.459-0.43c-0.282-0.271-0.454-0.492-0.577-0.639c-0.123-0.147-0.189-0.227-0.189-0.227
				c-0.142-0.17-0.121-0.425,0.045-0.569C10.663,26.48,10.875,26.484,11.02,26.602z"/>
			<path fill="#FFFFFF" d="M13.789,28.652c0,0,0.103,0.074,0.298,0.214c0.227,0.182,0.518,0.435,0.833,0.786
				c0.638,0.697,1.368,1.769,2.266,2.942c0.453,0.582,0.96,1.188,1.555,1.731c0.59,0.553,1.278,1.027,2.045,1.376
				c0.772,0.333,1.624,0.541,2.52,0.573c0.902,0.039,1.804-0.074,2.755-0.271c0.82-0.188,1.677-0.566,2.431-1.048
				c0.76-0.486,1.449-1.075,2.044-1.713c1.197-1.276,2.006-2.745,2.503-4.062c0.247-0.663,0.421-1.288,0.55-1.849
				c0.132-0.559,0.198-1.06,0.251-1.468c0.042-0.415,0.07-0.74,0.076-0.963c0.011-0.223,0.016-0.342,0.016-0.342l0.001-0.046
				c0.03-0.6,0.53-1.063,1.118-1.035c0.588,0.03,1.042,0.542,1.014,1.141l-0.001,0.014c0,0-0.008,0.137-0.022,0.394
				c-0.01,0.255-0.046,0.63-0.102,1.104c-0.066,0.473-0.15,1.052-0.312,1.699c-0.153,0.649-0.37,1.375-0.68,2.136
				c-0.618,1.518-1.6,3.202-3.038,4.656c-0.715,0.73-1.539,1.4-2.461,1.958c-0.933,0.548-1.933,0.997-3.077,1.205
				c-1.014,0.168-2.111,0.271-3.175,0.18c-1.07-0.083-2.123-0.376-3.058-0.825c-0.929-0.467-1.734-1.078-2.386-1.736
				c-0.661-0.653-1.188-1.338-1.644-1.972c-0.455-0.633-0.833-1.227-1.173-1.73c-0.34-0.509-0.641-0.927-0.903-1.25
				c-0.262-0.322-0.486-0.532-0.619-0.656c-0.183-0.146-0.279-0.223-0.279-0.223l-0.008-0.006c-0.242-0.193-0.285-0.551-0.097-0.797
				C13.214,28.529,13.548,28.479,13.789,28.652z"/>
			<path fill="#FFFFFF" d="M31.454,22.901c0,0,0.135-0.061,0.373-0.149c0.125-0.038,0.251-0.107,0.443-0.14
				c0.187-0.038,0.403-0.085,0.643-0.112c0.236-0.008,0.495-0.037,0.772-0.005c0.278,0.035,0.578,0.064,0.876,0.175
				c0.153,0.042,0.304,0.098,0.449,0.175s0.305,0.138,0.441,0.239c0.136,0.096,0.278,0.19,0.413,0.297l0.37,0.349
				c0.224,0.25,0.442,0.508,0.602,0.783c0.182,0.27,0.306,0.552,0.434,0.823c0.107,0.271,0.21,0.541,0.279,0.794
				c0.082,0.253,0.134,0.496,0.176,0.72c0.052,0.222,0.075,0.429,0.098,0.609c0.027,0.181,0.036,0.339,0.044,0.473
				c0.016,0.262,0.015,0.411,0.015,0.411c-0.003,0.221-0.179,0.397-0.396,0.395c-0.143-0.001-0.268-0.08-0.334-0.199l-0.006-0.012
				c0,0-0.072-0.129-0.179-0.356c-0.102-0.224-0.251-0.543-0.428-0.927c-0.088-0.184-0.184-0.383-0.285-0.594
				c-0.094-0.212-0.221-0.414-0.329-0.635c-0.126-0.204-0.243-0.425-0.384-0.616c-0.133-0.207-0.286-0.388-0.439-0.564l-0.239-0.248
				c-0.09-0.07-0.173-0.142-0.26-0.214c-0.083-0.078-0.185-0.12-0.272-0.186c-0.088-0.067-0.186-0.114-0.284-0.16
				c-0.189-0.105-0.393-0.174-0.589-0.244c-0.196-0.064-0.399-0.099-0.583-0.154c-0.184-0.027-0.354-0.054-0.512-0.083
				c-0.152-0.031-0.321-0.026-0.441-0.043c-0.251-0.02-0.397-0.043-0.397-0.043c-0.156-0.026-0.264-0.176-0.24-0.335
				C31.302,23.022,31.37,22.94,31.454,22.901z"/>
			<path fill="#FFFFFF" d="M18.225,34.506c2.159-2.167,4.985-1.275,6.17,0.033c0.979-2.002,4.47-3.67,6.919-1.226
				c-3.83,3.163-9.126,5.301-12.575,1.915"/>
		</g>
	</g>
</g>
</svg>
