<?xml version="1.0" encoding="utf-8"?>
<!-- Generator: Adobe Illustrator 16.0.3, SVG Export Plug-In . SVG Version: 6.00 Build 0)  -->
<!DOCTYPE svg PUBLIC "-//W3C//DTD SVG 1.1//EN" "http://www.w3.org/Graphics/SVG/1.1/DTD/svg11.dtd">
<svg version="1.1" id="レイヤー_1" xmlns="http://www.w3.org/2000/svg" xmlns:xlink="http://www.w3.org/1999/xlink" x="0px"
	 y="0px" width="480px" height="550px" viewBox="0 0 480 550" enable-background="new 0 0 480 550" xml:space="preserve">
<g id="stars" opacity="0.2">
	<defs>
		<rect id="SVGID_1_" opacity="0.2" width="480" height="550"/>
	</defs>
	<clipPath id="SVGID_2_">
		<use xlink:href="#SVGID_1_"  overflow="visible"/>
	</clipPath>
	<g id="星中" clip-path="url(#SVGID_2_)">
		<path fill="none" stroke="#FFFFFF" stroke-width="2" stroke-linecap="round" stroke-linejoin="round" stroke-miterlimit="10" d="
			M467.999,58c1.6,1.6,8.647,2.667,8.647,2.667s-7.048,1.067-8.647,2.667c-1.601,1.6-2.667,11.665-2.667,11.665
			s-1.066-10.065-2.667-11.665c-1.6-1.6-8.647-2.667-8.647-2.667s7.048-1.067,8.647-2.667c1.601-1.6,2.667-11.665,2.667-11.665
			S466.398,56.4,467.999,58z"/>
		<path fill="none" stroke="#FFFFFF" stroke-width="2" stroke-linecap="round" stroke-linejoin="round" stroke-miterlimit="10" d="
			M360.898,343.936c2.14,2.139,11.564,3.566,11.564,3.566s-9.425,1.427-11.564,3.566c-2.141,2.139-3.566,15.6-3.566,15.6
			s-1.426-13.461-3.566-15.6c-2.14-2.14-11.564-3.566-11.564-3.566s9.425-1.428,11.564-3.566c2.141-2.14,3.566-15.601,3.566-15.601
			S358.758,341.796,360.898,343.936z"/>
		<path fill="none" stroke="#FFFFFF" stroke-width="2" stroke-linecap="round" stroke-linejoin="round" stroke-miterlimit="10" d="
			M312.898,150.936c2.14,2.139,11.564,3.566,11.564,3.566s-9.425,1.427-11.564,3.566c-2.141,2.139-3.566,15.6-3.566,15.6
			s-1.426-13.461-3.566-15.6c-2.14-2.14-11.564-3.566-11.564-3.566s9.425-1.428,11.564-3.566c2.141-2.14,3.566-15.601,3.566-15.601
			S310.758,148.796,312.898,150.936z"/>
		<path fill="none" stroke="#FFFFFF" stroke-width="2" stroke-linecap="round" stroke-linejoin="round" stroke-miterlimit="10" d="
			M104.664,193.914c2,1.998,10.808,3.332,10.808,3.332s-8.808,1.334-10.808,3.333s-3.332,14.577-3.332,14.577
			s-1.332-12.578-3.333-14.577c-1.999-1.999-10.807-3.333-10.807-3.333s8.808-1.334,10.807-3.332c2.001-2,3.333-14.579,3.333-14.579
			S102.664,191.914,104.664,193.914z"/>
		<path fill="none" stroke="#FFFFFF" stroke-width="2" stroke-linecap="round" stroke-linejoin="round" stroke-miterlimit="10" d="
			M50.013,387.063c1.608,1.606,8.693,2.681,8.693,2.681s-7.085,1.072-8.693,2.681c-1.608,1.607-2.681,11.726-2.681,11.726
			s-1.072-10.118-2.682-11.726c-1.607-1.608-8.692-2.681-8.692-2.681s7.085-1.074,8.692-2.681
			c1.609-1.609,2.682-11.728,2.682-11.728S48.404,385.453,50.013,387.063z"/>
		<path fill="none" stroke="#FFFFFF" stroke-width="2" stroke-linecap="round" stroke-linejoin="round" stroke-miterlimit="10" d="
			M253.511,470.24c1.907,1.904,10.308,3.178,10.308,3.178s-8.4,1.271-10.308,3.179c-1.907,1.906-3.179,13.903-3.179,13.903
			s-1.271-11.997-3.18-13.903c-1.905-1.907-10.307-3.179-10.307-3.179s8.401-1.273,10.307-3.178
			c1.908-1.908,3.18-13.905,3.18-13.905S251.604,468.332,253.511,470.24z"/>
	</g>
	<g id="星大" opacity="0.5" clip-path="url(#SVGID_2_)">
		
			<polygon fill="none" stroke="#FFFFFF" stroke-width="2" stroke-linecap="round" stroke-linejoin="round" stroke-miterlimit="10" points="
			407.304,32.291 409.657,2.924 412.006,32.291 425.952,21.674 415.334,35.617 438.701,37.969 415.334,40.321 425.952,54.264 
			412.006,43.646 409.657,75.014 407.305,43.646 393.36,54.264 403.979,40.321 380.611,37.97 403.979,35.617 393.361,21.674 		"/>
		
			<polygon fill="none" stroke="#FFFFFF" stroke-width="2" stroke-linecap="round" stroke-linejoin="round" stroke-miterlimit="10" points="
			40.304,487.291 42.657,457.924 45.006,487.291 58.952,476.674 48.334,490.617 71.701,492.969 48.334,495.321 58.952,509.264 
			45.006,498.646 42.657,530.014 40.305,498.646 26.36,509.264 36.979,495.321 13.611,492.97 36.979,490.617 26.361,476.674 		"/>
		
			<polygon fill="none" stroke="#FFFFFF" stroke-width="2" stroke-linecap="round" stroke-linejoin="round" stroke-miterlimit="10" points="
			168.304,299.291 170.657,269.924 173.006,299.291 186.952,288.674 176.334,302.617 199.701,304.969 176.334,307.321 
			186.952,321.264 173.006,310.646 170.657,342.014 168.305,310.646 154.36,321.264 164.979,307.321 141.611,304.97 
			164.979,302.617 154.361,288.674 		"/>
	</g>
	<g id="線丸" clip-path="url(#SVGID_2_)">
		
			<circle fill="none" stroke="#FFFFFF" stroke-width="2" stroke-linecap="round" stroke-linejoin="round" stroke-miterlimit="10" cx="417.956" cy="168.289" r="3.545"/>
		
			<circle fill="none" stroke="#FFFFFF" stroke-width="2" stroke-linecap="round" stroke-linejoin="round" stroke-miterlimit="10" cx="199.456" cy="102.789" r="4.874"/>
		
			<circle fill="none" stroke="#FFFFFF" stroke-width="2" stroke-linecap="round" stroke-linejoin="round" stroke-miterlimit="10" cx="447.456" cy="321.789" r="4.874"/>
		
			<circle fill="none" stroke="#FFFFFF" stroke-width="2" stroke-linecap="round" stroke-linejoin="round" stroke-miterlimit="10" cx="323.956" cy="518.289" r="3.545"/>
		
			<circle fill="none" stroke="#FFFFFF" stroke-width="2" stroke-linecap="round" stroke-linejoin="round" stroke-miterlimit="10" cx="25.456" cy="146.789" r="3.874"/>
		
			<circle fill="none" stroke="#FFFFFF" stroke-width="2" stroke-linecap="round" stroke-linejoin="round" stroke-miterlimit="10" cx="104.456" cy="8.789" r="3.874"/>
	</g>
	<g id="塗丸" clip-path="url(#SVGID_2_)">
		<circle fill="#FFFFFF" cx="227.25" cy="5.75" r="3.75"/>
		<circle fill="#FFFFFF" cx="38.25" cy="19.75" r="3.75"/>
		<circle fill="#FFFFFF" cx="5.25" cy="438.75" r="4.75"/>
		<circle fill="#FFFFFF" cx="309.25" cy="443.75" r="4.75"/>
		<circle fill="#FFFFFF" cx="435.917" cy="521.416" r="4.417"/>
		<circle fill="#FFFFFF" cx="447.917" cy="110.416" r="4.417"/>
	</g>
	
		<path clip-path="url(#SVGID_2_)" fill="none" stroke="#FFFFFF" stroke-width="2" stroke-linecap="round" stroke-linejoin="round" stroke-miterlimit="10" d="
		M115.998,59.535c1,0.999,5.404,1.666,5.404,1.666s-4.404,0.667-5.404,1.666c-1,1-1.666,7.289-1.666,7.289s-0.666-6.289-1.666-7.289
		c-1-0.999-5.404-1.666-5.404-1.666s4.404-0.667,5.404-1.666c1-1,1.666-7.289,1.666-7.289S114.998,58.535,115.998,59.535z"/>
	
		<path clip-path="url(#SVGID_2_)" fill="none" stroke="#FFFFFF" stroke-width="2" stroke-linecap="round" stroke-linejoin="round" stroke-miterlimit="10" d="
		M184.107,221.014c1.065,1.064,5.759,1.775,5.759,1.775s-4.693,0.711-5.759,1.775c-1.064,1.065-1.775,7.768-1.775,7.768
		s-0.71-6.702-1.775-7.768c-1.065-1.064-5.759-1.775-5.759-1.775s4.693-0.711,5.759-1.775c1.065-1.065,1.775-7.768,1.775-7.768
		S183.043,219.948,184.107,221.014z"/>
	
		<circle clip-path="url(#SVGID_2_)" fill="none" stroke="#FFFFFF" stroke-width="2" stroke-linecap="round" stroke-linejoin="round" stroke-miterlimit="10" cx="73.75" cy="76.132" r="2.882"/>
	
		<circle clip-path="url(#SVGID_2_)" fill="none" stroke="#FFFFFF" stroke-width="2" stroke-linecap="round" stroke-linejoin="round" stroke-miterlimit="10" cx="85.75" cy="129.132" r="2.882"/>
	<circle clip-path="url(#SVGID_2_)" fill="#FFFFFF" cx="98.75" cy="98.132" r="2.882"/>
	<circle clip-path="url(#SVGID_2_)" fill="#FFFFFF" cx="40.75" cy="89.688" r="3.438"/>
	
		<circle clip-path="url(#SVGID_2_)" fill="none" stroke="#FFFFFF" stroke-width="2" stroke-linecap="round" stroke-linejoin="round" stroke-miterlimit="10" cx="166.75" cy="171.132" r="2.882"/>
	
		<circle clip-path="url(#SVGID_2_)" fill="none" stroke="#FFFFFF" stroke-width="2" stroke-linecap="round" stroke-linejoin="round" stroke-miterlimit="10" cx="218.75" cy="212.132" r="2.882"/>
	<circle clip-path="url(#SVGID_2_)" fill="#FFFFFF" cx="206.75" cy="165.507" r="3.507"/>
	<circle clip-path="url(#SVGID_2_)" fill="#FFFFFF" cx="255.75" cy="202.507" r="3.507"/>
	<circle clip-path="url(#SVGID_2_)" fill="#FFFFFF" cx="285.75" cy="38.507" r="3.507"/>
	
		<path clip-path="url(#SVGID_2_)" fill="none" stroke="#FFFFFF" stroke-width="2" stroke-linecap="round" stroke-linejoin="round" stroke-miterlimit="10" d="
		M266.107,71.014c1.065,1.064,5.759,1.775,5.759,1.775s-4.693,0.711-5.759,1.775c-1.064,1.065-1.775,7.768-1.775,7.768
		s-0.71-6.702-1.775-7.768c-1.065-1.064-5.759-1.775-5.759-1.775s4.693-0.711,5.759-1.775c1.065-1.065,1.775-7.768,1.775-7.768
		S265.043,69.948,266.107,71.014z"/>
	<circle clip-path="url(#SVGID_2_)" fill="#FFFFFF" cx="348.75" cy="36.507" r="3.507"/>
	
		<circle clip-path="url(#SVGID_2_)" fill="none" stroke="#FFFFFF" stroke-width="2" stroke-linecap="round" stroke-linejoin="round" stroke-miterlimit="10" cx="317.75" cy="95.132" r="2.882"/>
	
		<circle clip-path="url(#SVGID_2_)" fill="none" stroke="#FFFFFF" stroke-width="2" stroke-linecap="round" stroke-linejoin="round" stroke-miterlimit="10" cx="303.75" cy="4.132" r="2.882"/>
	
		<path clip-path="url(#SVGID_2_)" fill="none" stroke="#FFFFFF" stroke-width="2" stroke-linecap="round" stroke-linejoin="round" stroke-miterlimit="10" d="
		M382.107,290.014c1.065,1.064,5.759,1.775,5.759,1.775s-4.693,0.711-5.759,1.775c-1.064,1.065-1.775,7.768-1.775,7.768
		s-0.71-6.702-1.775-7.768c-1.065-1.064-5.759-1.775-5.759-1.775s4.693-0.711,5.759-1.775c1.065-1.065,1.775-7.768,1.775-7.768
		S381.043,288.948,382.107,290.014z"/>
	
		<path clip-path="url(#SVGID_2_)" fill="none" stroke="#FFFFFF" stroke-width="2" stroke-linecap="round" stroke-linejoin="round" stroke-miterlimit="10" d="
		M228.107,374.014c1.065,1.064,5.759,1.775,5.759,1.775s-4.693,0.711-5.759,1.775c-1.064,1.065-1.775,7.768-1.775,7.768
		s-0.71-6.702-1.775-7.768c-1.065-1.064-5.759-1.775-5.759-1.775s4.693-0.711,5.759-1.775c1.065-1.065,1.775-7.768,1.775-7.768
		S227.043,372.948,228.107,374.014z"/>
	
		<path clip-path="url(#SVGID_2_)" fill="none" stroke="#FFFFFF" stroke-width="2" stroke-linecap="round" stroke-linejoin="round" stroke-miterlimit="10" d="
		M417.107,434.014c1.065,1.064,5.759,1.775,5.759,1.775s-4.693,0.711-5.759,1.775c-1.064,1.065-1.775,7.768-1.775,7.768
		s-0.71-6.702-1.775-7.768c-1.065-1.064-5.759-1.775-5.759-1.775s4.693-0.711,5.759-1.775c1.065-1.065,1.775-7.768,1.775-7.768
		S416.043,432.948,417.107,434.014z"/>
	
		<path clip-path="url(#SVGID_2_)" fill="none" stroke="#FFFFFF" stroke-width="2" stroke-linecap="round" stroke-linejoin="round" stroke-miterlimit="10" d="
		M169.107,451.014c1.065,1.064,5.759,1.775,5.759,1.775s-4.693,0.711-5.759,1.775c-1.064,1.065-1.775,7.768-1.775,7.768
		s-0.71-6.702-1.775-7.768c-1.065-1.064-5.759-1.775-5.759-1.775s4.693-0.711,5.759-1.775c1.065-1.065,1.775-7.768,1.775-7.768
		S168.043,449.948,169.107,451.014z"/>
	
		<path clip-path="url(#SVGID_2_)" fill="none" stroke="#FFFFFF" stroke-width="2" stroke-linecap="round" stroke-linejoin="round" stroke-miterlimit="10" d="
		M29.107,310.014c1.065,1.064,5.759,1.775,5.759,1.775s-4.693,0.711-5.759,1.775c-1.064,1.065-1.775,7.768-1.775,7.768
		s-0.71-6.702-1.775-7.768c-1.065-1.064-5.759-1.775-5.759-1.775s4.693-0.711,5.759-1.775c1.065-1.065,1.775-7.768,1.775-7.768
		S28.043,308.948,29.107,310.014z"/>
	<circle clip-path="url(#SVGID_2_)" fill="#FFFFFF" cx="408.75" cy="238.507" r="3.507"/>
	<circle clip-path="url(#SVGID_2_)" fill="#FFFFFF" cx="349.75" cy="231.507" r="3.507"/>
	<circle clip-path="url(#SVGID_2_)" fill="#FFFFFF" cx="307.75" cy="343.507" r="3.507"/>
	<circle clip-path="url(#SVGID_2_)" fill="#FFFFFF" cx="271.75" cy="402.507" r="3.507"/>
	<circle clip-path="url(#SVGID_2_)" fill="#FFFFFF" cx="398.75" cy="457.507" r="3.507"/>
	<circle clip-path="url(#SVGID_2_)" fill="#FFFFFF" cx="358.75" cy="455.507" r="3.507"/>
	<circle clip-path="url(#SVGID_2_)" fill="#FFFFFF" cx="408.75" cy="495.507" r="3.507"/>
	<circle clip-path="url(#SVGID_2_)" fill="#FFFFFF" cx="48.75" cy="344.507" r="3.507"/>
	<circle clip-path="url(#SVGID_2_)" fill="#FFFFFF" cx="47.75" cy="253.507" r="3.507"/>
	<circle clip-path="url(#SVGID_2_)" fill="#FFFFFF" cx="119.75" cy="454.507" r="3.507"/>
	<circle clip-path="url(#SVGID_2_)" fill="#FFFFFF" cx="156.75" cy="530.507" r="3.507"/>
	
		<circle clip-path="url(#SVGID_2_)" fill="none" stroke="#FFFFFF" stroke-width="2" stroke-linecap="round" stroke-linejoin="round" stroke-miterlimit="10" cx="396.75" cy="207.132" r="2.882"/>
	
		<circle clip-path="url(#SVGID_2_)" fill="none" stroke="#FFFFFF" stroke-width="2" stroke-linecap="round" stroke-linejoin="round" stroke-miterlimit="10" cx="364.75" cy="262.132" r="2.882"/>
	
		<circle clip-path="url(#SVGID_2_)" fill="none" stroke="#FFFFFF" stroke-width="2" stroke-linecap="round" stroke-linejoin="round" stroke-miterlimit="10" cx="424.75" cy="267.132" r="2.882"/>
	
		<circle clip-path="url(#SVGID_2_)" fill="none" stroke="#FFFFFF" stroke-width="2" stroke-linecap="round" stroke-linejoin="round" stroke-miterlimit="10" cx="261.75" cy="317.132" r="2.882"/>
	
		<circle clip-path="url(#SVGID_2_)" fill="none" stroke="#FFFFFF" stroke-width="2" stroke-linecap="round" stroke-linejoin="round" stroke-miterlimit="10" cx="387.75" cy="414.132" r="2.882"/>
	
		<circle clip-path="url(#SVGID_2_)" fill="none" stroke="#FFFFFF" stroke-width="2" stroke-linecap="round" stroke-linejoin="round" stroke-miterlimit="10" cx="441.75" cy="452.132" r="2.882"/>
	
		<circle clip-path="url(#SVGID_2_)" fill="none" stroke="#FFFFFF" stroke-width="2" stroke-linecap="round" stroke-linejoin="round" stroke-miterlimit="10" cx="189.75" cy="489.132" r="2.882"/>
	
		<circle clip-path="url(#SVGID_2_)" fill="none" stroke="#FFFFFF" stroke-width="2" stroke-linecap="round" stroke-linejoin="round" stroke-miterlimit="10" cx="135.75" cy="491.132" r="2.882"/>
	
		<circle clip-path="url(#SVGID_2_)" fill="none" stroke="#FFFFFF" stroke-width="2" stroke-linecap="round" stroke-linejoin="round" stroke-miterlimit="10" cx="90.75" cy="317.132" r="2.882"/>
	
		<circle clip-path="url(#SVGID_2_)" fill="none" stroke="#FFFFFF" stroke-width="2" stroke-linecap="round" stroke-linejoin="round" stroke-miterlimit="10" cx="67.75" cy="285.132" r="2.882"/>
	
		<circle clip-path="url(#SVGID_2_)" fill="none" stroke="#FFFFFF" stroke-width="2" stroke-linecap="round" stroke-linejoin="round" stroke-miterlimit="10" cx="7.75" cy="282.132" r="2.882"/>
	<g clip-path="url(#SVGID_2_)">
		<g>
			
				<line fill="none" stroke="#FFFFFF" stroke-width="2" stroke-linecap="round" stroke-linejoin="round" stroke-miterlimit="10" x1="164" y1="41" x2="164" y2="51"/>
			
				<line fill="none" stroke="#FFFFFF" stroke-width="2" stroke-linecap="round" stroke-linejoin="round" stroke-miterlimit="10" x1="164" y1="20" x2="164" y2="30"/>
			
				<line fill="none" stroke="#FFFFFF" stroke-width="2" stroke-linecap="round" stroke-linejoin="round" stroke-miterlimit="10" x1="170" y1="36" x2="176" y2="36"/>
			
				<line fill="none" stroke="#FFFFFF" stroke-width="2" stroke-linecap="round" stroke-linejoin="round" stroke-miterlimit="10" x1="152" y1="36" x2="159" y2="36"/>
		</g>
		<g>
			
				<line fill="none" stroke="#FFFFFF" stroke-width="2" stroke-linecap="round" stroke-linejoin="round" stroke-miterlimit="10" x1="379" y1="122" x2="379" y2="132"/>
			
				<line fill="none" stroke="#FFFFFF" stroke-width="2" stroke-linecap="round" stroke-linejoin="round" stroke-miterlimit="10" x1="379" y1="101" x2="379" y2="111"/>
			
				<line fill="none" stroke="#FFFFFF" stroke-width="2" stroke-linecap="round" stroke-linejoin="round" stroke-miterlimit="10" x1="385" y1="117" x2="391" y2="117"/>
			
				<line fill="none" stroke="#FFFFFF" stroke-width="2" stroke-linecap="round" stroke-linejoin="round" stroke-miterlimit="10" x1="367" y1="117" x2="374" y2="117"/>
		</g>
		<g>
			
				<line fill="none" stroke="#FFFFFF" stroke-width="2" stroke-linecap="round" stroke-linejoin="round" stroke-miterlimit="10" x1="446" y1="395" x2="446" y2="406"/>
			
				<line fill="none" stroke="#FFFFFF" stroke-width="2" stroke-linecap="round" stroke-linejoin="round" stroke-miterlimit="10" x1="446" y1="370" x2="446" y2="382"/>
			
				<line fill="none" stroke="#FFFFFF" stroke-width="2" stroke-linecap="round" stroke-linejoin="round" stroke-miterlimit="10" x1="453" y1="389" x2="460" y2="389"/>
			
				<line fill="none" stroke="#FFFFFF" stroke-width="2" stroke-linecap="round" stroke-linejoin="round" stroke-miterlimit="10" x1="432" y1="389" x2="440" y2="389"/>
		</g>
		<g>
			
				<line fill="none" stroke="#FFFFFF" stroke-width="2" stroke-linecap="round" stroke-linejoin="round" stroke-miterlimit="10" x1="289" y1="253" x2="289" y2="262"/>
			
				<line fill="none" stroke="#FFFFFF" stroke-width="2" stroke-linecap="round" stroke-linejoin="round" stroke-miterlimit="10" x1="289" y1="235" x2="289" y2="244"/>
			
				<line fill="none" stroke="#FFFFFF" stroke-width="2" stroke-linecap="round" stroke-linejoin="round" stroke-miterlimit="10" x1="294" y1="249" x2="299" y2="249"/>
			
				<line fill="none" stroke="#FFFFFF" stroke-width="2" stroke-linecap="round" stroke-linejoin="round" stroke-miterlimit="10" x1="279" y1="249" x2="285" y2="249"/>
		</g>
		<g>
			
				<line fill="none" stroke="#FFFFFF" stroke-width="2" stroke-linecap="round" stroke-linejoin="round" stroke-miterlimit="10" x1="11" y1="209" x2="11" y2="218"/>
			
				<line fill="none" stroke="#FFFFFF" stroke-width="2" stroke-linecap="round" stroke-linejoin="round" stroke-miterlimit="10" x1="11" y1="191" x2="11" y2="200"/>
			
				<line fill="none" stroke="#FFFFFF" stroke-width="2" stroke-linecap="round" stroke-linejoin="round" stroke-miterlimit="10" x1="16" y1="205" x2="21" y2="205"/>
			
				<line fill="none" stroke="#FFFFFF" stroke-width="2" stroke-linecap="round" stroke-linejoin="round" stroke-miterlimit="10" x1="1" y1="205" x2="7" y2="205"/>
		</g>
		<g>
			
				<line fill="none" stroke="#FFFFFF" stroke-width="2" stroke-linecap="round" stroke-linejoin="round" stroke-miterlimit="10" x1="133" y1="390" x2="133" y2="399"/>
			
				<line fill="none" stroke="#FFFFFF" stroke-width="2" stroke-linecap="round" stroke-linejoin="round" stroke-miterlimit="10" x1="133" y1="372" x2="133" y2="381"/>
			
				<line fill="none" stroke="#FFFFFF" stroke-width="2" stroke-linecap="round" stroke-linejoin="round" stroke-miterlimit="10" x1="138" y1="386" x2="143" y2="386"/>
			
				<line fill="none" stroke="#FFFFFF" stroke-width="2" stroke-linecap="round" stroke-linejoin="round" stroke-miterlimit="10" x1="123" y1="386" x2="129" y2="386"/>
		</g>
	</g>
	<g id="線" opacity="0.5" clip-path="url(#SVGID_2_)">
		
			<line fill="none" stroke="#FFFFFF" stroke-width="2" stroke-linecap="round" stroke-linejoin="round" stroke-miterlimit="10" x1="95.495" y1="104.95" x2="88.334" y2="122.666"/>
		
			<line fill="none" stroke="#FFFFFF" stroke-width="2" stroke-linecap="round" stroke-linejoin="round" stroke-miterlimit="10" x1="109.033" y1="71.461" x2="100.82" y2="91.777"/>
		
			<line fill="none" stroke="#FFFFFF" stroke-width="2" stroke-linecap="round" stroke-linejoin="round" stroke-miterlimit="10" x1="80.406" y1="73.774" x2="103.75" y2="64.106"/>
		
			<line fill="none" stroke="#FFFFFF" stroke-width="2" stroke-linecap="round" stroke-linejoin="round" stroke-miterlimit="10" x1="47.666" y1="87.334" x2="67.756" y2="79.014"/>
		
			<line fill="none" stroke="#FFFFFF" stroke-width="2" stroke-linecap="round" stroke-linejoin="round" stroke-miterlimit="10" x1="78.334" y1="81.334" x2="92.512" y2="93.971"/>
		
			<line fill="none" stroke="#FFFFFF" stroke-width="2" stroke-linecap="round" stroke-linejoin="round" stroke-miterlimit="10" x1="225.965" y1="210.373" x2="248" y2="204.334"/>
		
			<line fill="none" stroke="#FFFFFF" stroke-width="2" stroke-linecap="round" stroke-linejoin="round" stroke-miterlimit="10" x1="194.965" y1="218.871" x2="212.051" y2="214.188"/>
		
			<line fill="none" stroke="#FFFFFF" stroke-width="2" stroke-linecap="round" stroke-linejoin="round" stroke-miterlimit="10" x1="169" y1="179" x2="178.557" y2="210.061"/>
		
			<line fill="none" stroke="#FFFFFF" stroke-width="2" stroke-linecap="round" stroke-linejoin="round" stroke-miterlimit="10" x1="208.5" y1="173.334" x2="216.334" y2="203"/>
		
			<line fill="none" stroke="#FFFFFF" stroke-width="2" stroke-linecap="round" stroke-linejoin="round" stroke-miterlimit="10" x1="281.804" y1="44.529" x2="270.333" y2="65.667"/>
		
			<line fill="none" stroke="#FFFFFF" stroke-width="2" stroke-linecap="round" stroke-linejoin="round" stroke-miterlimit="10" x1="300" y1="11" x2="288.808" y2="31.625"/>
		
			<line fill="none" stroke="#FFFFFF" stroke-width="2" stroke-linecap="round" stroke-linejoin="round" stroke-miterlimit="10" x1="293.333" y1="38.334" x2="340.667" y2="36.667"/>
		
			<line fill="none" stroke="#FFFFFF" stroke-width="2" stroke-linecap="round" stroke-linejoin="round" stroke-miterlimit="10" x1="289.333" y1="44.334" x2="314" y2="88.167"/>
		
			<line fill="none" stroke="#FFFFFF" stroke-width="2" stroke-linecap="round" stroke-linejoin="round" stroke-miterlimit="10" x1="390" y1="210" x2="356" y2="227.666"/>
		
			<line fill="none" stroke="#FFFFFF" stroke-width="2" stroke-linecap="round" stroke-linejoin="round" stroke-miterlimit="10" x1="368.488" y1="269.088" x2="375.167" y2="282.246"/>
		
			<line fill="none" stroke="#FFFFFF" stroke-width="2" stroke-linecap="round" stroke-linejoin="round" stroke-miterlimit="10" x1="353" y1="237.666" x2="361.724" y2="255.391"/>
		
			<line fill="none" stroke="#FFFFFF" stroke-width="2" stroke-linecap="round" stroke-linejoin="round" stroke-miterlimit="10" x1="372" y1="259" x2="401.333" y2="243"/>
		
			<line fill="none" stroke="#FFFFFF" stroke-width="2" stroke-linecap="round" stroke-linejoin="round" stroke-miterlimit="10" x1="390.667" y1="286.334" x2="417.956" y2="270.834"/>
		
			<line fill="none" stroke="#FFFFFF" stroke-width="2" stroke-linecap="round" stroke-linejoin="round" stroke-miterlimit="10" x1="33.561" y1="321.787" x2="44.333" y2="338.334"/>
		
			<line fill="none" stroke="#FFFFFF" stroke-width="2" stroke-linecap="round" stroke-linejoin="round" stroke-miterlimit="10" x1="12" y1="288.667" x2="21.799" y2="303.721"/>
		
			<line fill="none" stroke="#FFFFFF" stroke-width="2" stroke-linecap="round" stroke-linejoin="round" stroke-miterlimit="10" x1="36" y1="306.334" x2="61.666" y2="288.667"/>
		
			<line fill="none" stroke="#FFFFFF" stroke-width="2" stroke-linecap="round" stroke-linejoin="round" stroke-miterlimit="10" x1="72.379" y1="290.502" x2="86.666" y2="312"/>
		
			<line fill="none" stroke="#FFFFFF" stroke-width="2" stroke-linecap="round" stroke-linejoin="round" stroke-miterlimit="10" x1="51.666" y1="259.334" x2="64.742" y2="279.01"/>
		
			<line fill="none" stroke="#FFFFFF" stroke-width="2" stroke-linecap="round" stroke-linejoin="round" stroke-miterlimit="10" x1="139.494" y1="497.758" x2="151.666" y2="523.334"/>
		
			<line fill="none" stroke="#FFFFFF" stroke-width="2" stroke-linecap="round" stroke-linejoin="round" stroke-miterlimit="10" x1="122" y1="461.001" x2="133.057" y2="484.233"/>
		
			<line fill="none" stroke="#FFFFFF" stroke-width="2" stroke-linecap="round" stroke-linejoin="round" stroke-miterlimit="10" x1="127.333" y1="453.334" x2="156.333" y2="449.334"/>
		
			<line fill="none" stroke="#FFFFFF" stroke-width="2" stroke-linecap="round" stroke-linejoin="round" stroke-miterlimit="10" x1="160.666" y1="461.001" x2="141.833" y2="484.334"/>
		
			<line fill="none" stroke="#FFFFFF" stroke-width="2" stroke-linecap="round" stroke-linejoin="round" stroke-miterlimit="10" x1="144.333" y1="489.001" x2="182" y2="487.334"/>
		
			<line fill="none" stroke="#FFFFFF" stroke-width="2" stroke-linecap="round" stroke-linejoin="round" stroke-miterlimit="10" x1="160.666" y1="523.334" x2="185" y2="495.334"/>
		
			<line fill="none" stroke="#FFFFFF" stroke-width="2" stroke-linecap="round" stroke-linejoin="round" stroke-miterlimit="10" x1="300.666" y1="340.001" x2="269.333" y2="319.668"/>
		
			<line fill="none" stroke="#FFFFFF" stroke-width="2" stroke-linecap="round" stroke-linejoin="round" stroke-miterlimit="10" x1="256.666" y1="323.335" x2="232.666" y2="362.001"/>
		
			<line fill="none" stroke="#FFFFFF" stroke-width="2" stroke-linecap="round" stroke-linejoin="round" stroke-miterlimit="10" x1="237.333" y1="379.668" x2="264.632" y2="397.668"/>
		
			<line fill="none" stroke="#FFFFFF" stroke-width="2" stroke-linecap="round" stroke-linejoin="round" stroke-miterlimit="10" x1="382.666" y1="420.667" x2="363.5" y2="448.001"/>
		
			<line fill="none" stroke="#FFFFFF" stroke-width="2" stroke-linecap="round" stroke-linejoin="round" stroke-miterlimit="10" x1="365" y1="461.001" x2="402.5" y2="489.001"/>
		
			<line fill="none" stroke="#FFFFFF" stroke-width="2" stroke-linecap="round" stroke-linejoin="round" stroke-miterlimit="10" x1="415" y1="489.001" x2="437.375" y2="458.125"/>
		
			<line fill="none" stroke="#FFFFFF" stroke-width="2" stroke-linecap="round" stroke-linejoin="round" stroke-miterlimit="10" x1="435.517" y1="448.001" x2="424" y2="440.334"/>
		
			<line fill="none" stroke="#FFFFFF" stroke-width="2" stroke-linecap="round" stroke-linejoin="round" stroke-miterlimit="10" x1="409.154" y1="443.065" x2="403.321" y2="450.897"/>
	</g>
</g>
<g>
</g>
<g>
</g>
<g>
</g>
<g>
</g>
<g>
</g>
<g>
</g>
<g>
</g>
<g>
</g>
<g>
</g>
<g>
</g>
<g>
</g>
<g>
</g>
<g>
</g>
<g>
</g>
<g>
</g>
</svg>
